<?xml version="1.0" standalone="yes"?>

<svg version="1.1" viewBox="0.0 0.0 960.0 720.0" fill="none" stroke="none" stroke-linecap="square" stroke-miterlimit="10" xmlns="http://www.w3.org/2000/svg" xmlns:xlink="http://www.w3.org/1999/xlink"><clipPath id="p.0"><path d="m0 0l960.0 0l0 720.0l-960.0 0l0 -720.0z" clip-rule="nonzero"></path></clipPath><g clip-path="url(#p.0)"><path fill="#000000" fill-opacity="0.0" d="m0 0l960.0 0l0 720.0l-960.0 0z" fill-rule="nonzero"></path><path fill="#ffffff" d="m721.4278 266.6496l0 0c0 6.455658 20.93335 11.688995 46.75592 11.688995c25.82257 0 46.75592 -5.2333374 46.75592 -11.688995l0 79.48819c0 6.455658 -20.93335 11.688995 -46.75592 11.688995c-25.82257 0 -46.75592 -5.2333374 -46.75592 -11.688995z" fill-rule="nonzero"></path><path fill="#ffffff" d="m721.4278 266.6496l0 0c0 -6.4556274 20.93335 -11.688965 46.75592 -11.688965c25.82257 0 46.75592 5.2333374 46.75592 11.688965l0 0c0 6.455658 -20.93335 11.688995 -46.75592 11.688995c-25.82257 0 -46.75592 -5.2333374 -46.75592 -11.688995z" fill-rule="nonzero"></path><path fill="#000000" fill-opacity="0.0" d="m814.93964 266.6496l0 0c0 6.455658 -20.93335 11.688995 -46.75592 11.688995c-25.82257 0 -46.75592 -5.2333374 -46.75592 -11.688995l0 0c0 -6.4556274 20.93335 -11.688965 46.75592 -11.688965c25.82257 0 46.75592 5.2333374 46.75592 11.688965l0 79.48819c0 6.455658 -20.93335 11.688995 -46.75592 11.688995c-25.82257 0 -46.75592 -5.2333374 -46.75592 -11.688995l0 -79.48819" fill-rule="nonzero"></path><path stroke="#000000" stroke-width="2.0" stroke-linejoin="round" stroke-linecap="butt" d="m814.93964 266.6496l0 0c0 6.455658 -20.93335 11.688995 -46.75592 11.688995c-25.82257 0 -46.75592 -5.2333374 -46.75592 -11.688995l0 0c0 -6.4556274 20.93335 -11.688965 46.75592 -11.688965c25.82257 0 46.75592 5.2333374 46.75592 11.688965l0 79.48819c0 6.455658 -20.93335 11.688995 -46.75592 11.688995c-25.82257 0 -46.75592 -5.2333374 -46.75592 -11.688995l0 -79.48819" fill-rule="nonzero"></path><path fill="#ffffff" d="m853.50397 257.88977l37.385803 0l0 105.8425l-18.692932 18.692932l-18.692871 0z" fill-rule="nonzero"></path><path fill="#cbcbcb" d="m872.19684 382.4252l3.7385864 -14.954346l14.954346 -3.7385864z" fill-rule="nonzero"></path><path fill="#000000" fill-opacity="0.0" d="m872.19684 382.4252l3.7385864 -14.954346l14.954346 -3.7385864l-18.692932 18.692932l-18.692871 0l0 -124.53543l37.385803 0l0 105.8425" fill-rule="nonzero"></path><path stroke="#000000" stroke-width="2.0" stroke-linejoin="round" stroke-linecap="butt" d="m872.19684 382.4252l3.7385864 -14.954346l14.954346 -3.7385864l-18.692932 18.692932l-18.692871 0l0 -124.53543l37.385803 0l0 105.8425" fill-rule="nonzero"></path><path fill="#ffffff" d="m90.1811 270.96063l181.16537 0l0 73.63779l-181.16537 0z" fill-rule="nonzero"></path><path stroke="#000000" stroke-width="2.0" stroke-linejoin="round" stroke-linecap="butt" d="m90.1811 270.96063l181.16537 0l0 73.63779l-181.16537 0z" fill-rule="nonzero"></path><path fill="#000000" fill-opacity="0.0" d="m90.1811 283.77954l181.16537 0l0 48.0l-181.16537 0z" fill-rule="nonzero"></path><path fill="#000000" d="m131.00082 310.69952l-1.234375 -2.875l-5.5625 0l-1.234375 2.875l-3.15625 0l5.734375 -13.28125l2.875 0l5.734375 13.28125l-3.15625 0zm-4.0 -9.328125l-1.671875 3.859375l3.3125 0l-1.640625 -3.859375zm14.1020355 -1.0625q1.78125 0 3.171875 1.5q1.40625 1.484375 1.40625 3.75q0 2.25 -1.40625 3.78125q-1.390625 1.515625 -3.265625 1.515625q-1.859375 0 -3.0 -1.5l0 5.03125l-2.859375 0l0 -13.90625l2.859375 0l0 1.140625q1.3125 -1.3125 3.09375 -1.3125zm-3.140625 5.296875q0 1.234375 0.6875 2.03125q0.703125 0.78125 1.6875 0.78125q1.0 0 1.734375 -0.78125q0.734375 -0.796875 0.734375 -2.03125q0 -1.234375 -0.71875 -2.0625q-0.71875 -0.84375 -1.734375 -0.84375q-1.0 0 -1.703125 0.828125q-0.6875 0.828125 -0.6875 2.078125zm15.565689 -5.296875q1.78125 0 3.171875 1.5q1.40625 1.484375 1.40625 3.75q0 2.25 -1.40625 3.78125q-1.390625 1.515625 -3.265625 1.515625q-1.859375 0 -3.0 -1.5l0 5.03125l-2.859375 0l0 -13.90625l2.859375 0l0 1.140625q1.3125 -1.3125 3.09375 -1.3125zm-3.140625 5.296875q0 1.234375 0.6875 2.03125q0.703125 0.78125 1.6875 0.78125q1.0 0 1.734375 -0.78125q0.734375 -0.796875 0.734375 -2.03125q0 -1.234375 -0.71875 -2.0625q-0.71875 -0.84375 -1.734375 -0.84375q-1.0 0 -1.703125 0.828125q-0.6875 0.828125 -0.6875 2.078125zm12.471939 5.09375l-2.859375 0l0 -14.09375l2.859375 0l0 14.09375zm5.447632 0l-2.859375 0l0 -10.21875l2.859375 0l0 10.21875zm-2.609375 -11.515625q-0.484375 -0.5 -0.484375 -1.1875q0 -0.703125 0.484375 -1.1875q0.484375 -0.5 1.1875 -0.5q0.703125 0 1.1875 0.5q0.484375 0.484375 0.484375 1.1875q0 0.6875 -0.484375 1.1875q-0.484375 0.484375 -1.1875 0.484375q-0.703125 0 -1.1875 -0.484375zm10.103882 9.140625q1.421875 0 2.5625 -1.421875l1.6875 1.890625q-1.96875 2.0625 -4.265625 2.0625q-2.296875 0 -3.890625 -1.453125q-1.578125 -1.453125 -1.578125 -3.796875q0 -2.359375 1.59375 -3.828125q1.609375 -1.46875 3.8125 -1.46875q1.109375 0 2.234375 0.453125q1.125 0.453125 1.984375 1.34375l-1.484375 1.9375q-0.484375 -0.578125 -1.203125 -0.90625q-0.71875 -0.328125 -1.421875 -0.328125q-1.109375 0 -1.921875 0.734375q-0.8125 0.734375 -0.8125 2.046875q0 1.296875 0.8125 2.015625q0.8125 0.71875 1.890625 0.71875zm14.639191 2.375l-2.671875 0l0 -1.234375q-1.109375 1.390625 -2.734375 1.390625q-1.625 0 -2.734375 -0.9375q-1.09375 -0.953125 -1.09375 -2.515625q0 -1.5625 1.140625 -2.34375q1.140625 -0.78125 3.109375 -0.78125l2.140625 0l0 -0.0625q0 -1.625 -1.734375 -1.625q-0.734375 0 -1.5625 0.296875q-0.828125 0.28125 -1.40625 0.71875l-1.265625 -1.84375q2.015625 -1.453125 4.59375 -1.453125q1.859375 0 3.03125 0.9375q1.1875 0.921875 1.1875 2.9375l0 6.515625zm-2.875 -3.890625l0 -0.5l-1.78125 0q-1.703125 0 -1.703125 1.0625q0 0.546875 0.40625 0.84375q0.40625 0.296875 1.15625 0.296875q0.765625 0 1.34375 -0.453125q0.578125 -0.46875 0.578125 -1.25zm8.675568 -4.28125l0 4.578125q0 0.59375 0.296875 0.921875q0.3125 0.328125 0.734375 0.328125q0.796875 0 1.34375 -0.71875l1.0625 2.0q-1.328125 1.21875 -2.8125 1.21875q-1.46875 0 -2.484375 -0.96875q-1.015625 -0.96875 -1.015625 -2.640625l0 -4.71875l-1.1875 0l0 -2.046875l1.1875 0l0 -3.0625l2.875 0l0 3.0625l2.46875 0l0 2.046875l-2.46875 0zm7.6618805 8.171875l-2.859375 0l0 -10.21875l2.859375 0l0 10.21875zm-2.609375 -11.515625q-0.484375 -0.5 -0.484375 -1.1875q0 -0.703125 0.484375 -1.1875q0.484375 -0.5 1.1875 -0.5q0.703125 0 1.1875 0.5q0.484375 0.484375 0.484375 1.1875q0 0.6875 -0.484375 1.1875q-0.484375 0.484375 -1.1875 0.484375q-0.703125 0 -1.1875 -0.484375zm7.478882 6.40625q0 1.25 0.703125 2.046875q0.71875 0.78125 1.828125 0.78125q1.125 0 1.828125 -0.78125q0.71875 -0.796875 0.71875 -2.046875q0 -1.25 -0.71875 -2.046875q-0.703125 -0.8125 -1.828125 -0.8125q-1.109375 0 -1.828125 0.8125q-0.703125 0.796875 -0.703125 2.046875zm7.953125 0q0 2.21875 -1.546875 3.75q-1.53125 1.515625 -3.859375 1.515625q-2.328125 0 -3.875 -1.515625q-1.53125 -1.53125 -1.53125 -3.75q0 -2.21875 1.53125 -3.75q1.546875 -1.53125 3.875 -1.53125q2.328125 0 3.859375 1.53125q1.546875 1.53125 1.546875 3.75zm4.7329254 -0.59375l0 5.703125l-2.859375 0l0 -10.21875l2.859375 0l0 1.140625q1.28125 -1.3125 2.890625 -1.3125q1.625 0 2.71875 1.140625q1.09375 1.140625 1.09375 3.03125l0 6.21875l-2.84375 0l0 -5.78125q0 -2.34375 -1.734375 -2.34375q-0.859375 0 -1.5 0.625q-0.625 0.609375 -0.625 1.796875zm13.237213 -7.578125l5.375 0l0 13.28125l-2.859375 0l0 -10.75l-2.515625 0l0 -2.53125z" fill-rule="nonzero"></path><path fill="#000000" fill-opacity="0.0" d="m696.29395 354.89764l143.77954 0l0 37.417328l-143.77954 0z" fill-rule="nonzero"></path><path fill="#000000" d="m723.7171 368.07013l0 2.234375l-5.5625 0l0 2.296875l5.0 0l0 2.125l-5.0 0l0 2.328125l5.734375 0l0 2.203125l-8.234375 0l0 -11.1875l8.0625 0zm4.5578003 11.1875l-2.390625 0l0 -11.875l2.390625 0l0 11.875zm9.593872 0l-2.265625 0l0 -1.046875q-0.921875 1.171875 -2.296875 1.171875q-1.359375 0 -2.296875 -0.78125q-0.921875 -0.796875 -0.921875 -2.109375q0 -1.328125 0.953125 -1.984375q0.96875 -0.65625 2.625 -0.65625l1.796875 0l0 -0.046875q0 -1.375 -1.453125 -1.375q-0.625 0 -1.328125 0.25q-0.6875 0.234375 -1.171875 0.609375l-1.0625 -1.546875q1.6875 -1.234375 3.859375 -1.234375q1.578125 0 2.5625 0.78125q1.0 0.78125 1.0 2.484375l0 5.484375zm-2.421875 -3.28125l0 -0.421875l-1.5 0q-1.4375 0 -1.4375 0.90625q0 0.453125 0.34375 0.703125q0.34375 0.25 0.984375 0.25q0.640625 0 1.125 -0.390625q0.484375 -0.390625 0.484375 -1.046875zm11.082153 0.609375q0 1.265625 -0.9375 2.03125q-0.921875 0.765625 -2.375 0.765625q-0.953125 0 -2.0 -0.34375q-1.03125 -0.34375 -1.859375 -1.015625l1.046875 -1.5q1.34375 1.03125 2.875 1.03125q0.453125 0 0.71875 -0.171875q0.28125 -0.1875 0.28125 -0.484375q0 -0.3125 -0.375 -0.5625q-0.375 -0.265625 -1.09375 -0.484375q-0.703125 -0.21875 -1.078125 -0.375q-0.375 -0.171875 -0.859375 -0.46875q-0.984375 -0.609375 -0.984375 -1.796875q0 -1.203125 0.953125 -1.953125q0.96875 -0.75 2.484375 -0.75q1.53125 0 3.046875 1.015625l-0.890625 1.609375q-1.125 -0.765625 -2.234375 -0.765625q-1.109375 0 -1.109375 0.609375q0 0.328125 0.34375 0.53125q0.359375 0.1875 1.171875 0.4375q0.8125 0.25 1.15625 0.390625q0.34375 0.140625 0.828125 0.421875q0.890625 0.546875 0.890625 1.828125zm4.7106323 -4.203125l0 3.84375q0 0.5 0.25 0.78125q0.265625 0.28125 0.609375 0.28125q0.671875 0 1.140625 -0.609375l0.890625 1.6875q-1.109375 1.015625 -2.359375 1.015625q-1.234375 0 -2.09375 -0.8125q-0.859375 -0.8125 -0.859375 -2.21875l0 -3.96875l-1.0 0l0 -1.734375l1.0 0l0 -2.578125l2.421875 0l0 2.578125l2.078125 0l0 1.734375l-2.078125 0zm6.571289 6.875l-2.390625 0l0 -8.609375l2.390625 0l0 8.609375zm-2.203125 -9.703125q-0.40625 -0.40625 -0.40625 -1.0q0 -0.59375 0.40625 -1.0q0.421875 -0.40625 1.0 -0.40625q0.59375 0 1.0 0.40625q0.421875 0.40625 0.421875 1.0q0 0.59375 -0.421875 1.0q-0.40625 0.40625 -1.0 0.40625q-0.578125 0 -1.0 -0.40625zm8.609497 7.703125q1.203125 0 2.15625 -1.203125l1.421875 1.609375q-1.65625 1.71875 -3.59375 1.71875q-1.9375 0 -3.28125 -1.21875q-1.328125 -1.21875 -1.328125 -3.1875q0 -1.984375 1.34375 -3.21875q1.359375 -1.25 3.21875 -1.25q0.921875 0 1.875 0.390625q0.953125 0.375 1.671875 1.125l-1.25 1.640625q-0.40625 -0.5 -1.015625 -0.765625q-0.59375 -0.28125 -1.1875 -0.28125q-0.9375 0 -1.625 0.625q-0.6875 0.609375 -0.6875 1.703125q0 1.09375 0.6875 1.703125q0.6875 0.609375 1.59375 0.609375zm11.655762 -0.671875q0 1.265625 -0.9375 2.03125q-0.921875 0.765625 -2.375 0.765625q-0.953125 0 -2.0 -0.34375q-1.03125 -0.34375 -1.859375 -1.015625l1.046875 -1.5q1.34375 1.03125 2.875 1.03125q0.453125 0 0.71875 -0.171875q0.28125 -0.1875 0.28125 -0.484375q0 -0.3125 -0.375 -0.5625q-0.375 -0.265625 -1.09375 -0.484375q-0.703125 -0.21875 -1.078125 -0.375q-0.375 -0.171875 -0.859375 -0.46875q-0.984375 -0.609375 -0.984375 -1.796875q0 -1.203125 0.953125 -1.953125q0.96875 -0.75 2.484375 -0.75q1.53125 0 3.046875 1.015625l-0.890625 1.609375q-1.125 -0.765625 -2.234375 -0.765625q-1.109375 0 -1.109375 0.609375q0 0.328125 0.34375 0.53125q0.359375 0.1875 1.171875 0.4375q0.8125 0.25 1.15625 0.390625q0.34375 0.140625 0.828125 0.421875q0.890625 0.546875 0.890625 1.828125zm9.304382 1.421875q-1.453125 1.375 -3.421875 1.375q-1.953125 0 -3.234375 -1.203125q-1.28125 -1.203125 -1.28125 -3.234375q0 -2.046875 1.296875 -3.234375q1.3125 -1.203125 3.078125 -1.203125q1.78125 0 3.015625 1.078125q1.25 1.0625 1.25 2.9375l0 1.28125l-6.265625 0q0.109375 0.703125 0.734375 1.15625q0.625 0.4375 1.40625 0.4375q1.265625 0 2.078125 -0.84375l1.34375 1.453125zm-1.734375 -3.921875q-0.078125 -0.765625 -0.578125 -1.171875q-0.484375 -0.421875 -1.203125 -0.421875q-0.703125 0 -1.296875 0.4375q-0.59375 0.421875 -0.6875 1.15625l3.765625 0zm11.4817505 5.171875l-2.265625 0l0 -1.046875q-0.921875 1.171875 -2.296875 1.171875q-1.359375 0 -2.296875 -0.78125q-0.921875 -0.796875 -0.921875 -2.109375q0 -1.328125 0.953125 -1.984375q0.96875 -0.65625 2.625 -0.65625l1.796875 0l0 -0.046875q0 -1.375 -1.453125 -1.375q-0.625 0 -1.328125 0.25q-0.6875 0.234375 -1.171875 0.609375l-1.0625 -1.546875q1.6875 -1.234375 3.859375 -1.234375q1.578125 0 2.5625 0.78125q1.0 0.78125 1.0 2.484375l0 5.484375zm-2.421875 -3.28125l0 -0.421875l-1.5 0q-1.4375 0 -1.4375 0.90625q0 0.453125 0.34375 0.703125q0.34375 0.25 0.984375 0.25q0.640625 0 1.125 -0.390625q0.484375 -0.390625 0.484375 -1.046875zm9.129028 -3.21875q-1.0625 0 -1.59375 0.765625q-0.53125 0.765625 -0.53125 2.0l0 3.734375l-2.390625 0l0 -8.609375l2.390625 0l0 1.140625q0.46875 -0.53125 1.15625 -0.890625q0.703125 -0.375 1.421875 -0.390625l0.015625 2.25l-0.46875 0zm6.185425 4.5q1.203125 0 2.15625 -1.203125l1.421875 1.609375q-1.65625 1.71875 -3.59375 1.71875q-1.9375 0 -3.28125 -1.21875q-1.328125 -1.21875 -1.328125 -3.1875q0 -1.984375 1.34375 -3.21875q1.359375 -1.25 3.21875 -1.25q0.921875 0 1.875 0.390625q0.953125 0.375 1.671875 1.125l-1.25 1.640625q-0.40625 -0.5 -1.015625 -0.765625q-0.59375 -0.28125 -1.1875 -0.28125q-0.9375 0 -1.625 0.625q-0.6875 0.609375 -0.6875 1.703125q0 1.09375 0.6875 1.703125q0.6875 0.609375 1.59375 0.609375zm7.5776367 -2.640625l0 4.640625l-2.390625 0l0 -11.875l2.390625 0l0 4.234375q1.09375 -1.109375 2.4375 -1.109375q1.359375 0 2.28125 0.96875q0.9375 0.953125 0.9375 2.546875l0 5.234375l-2.40625 0l0 -4.703125q0 -1.984375 -1.453125 -1.984375q-0.71875 0 -1.265625 0.53125q-0.53125 0.515625 -0.53125 1.515625z" fill-rule="nonzero"></path><path fill="#000000" fill-opacity="0.0" d="m888.0735 257.88977l0 110.86612l-48.0 0l0 -110.86612z" fill-rule="nonzero"></path><path fill="#000000" d="m874.901 268.26477l0 2.5l-4.59375 0l4.59375 4.21875l0 3.09375l-4.953125 -4.453125q-0.796875 0.578125 -2.984375 2.125q-2.171875 1.5625 -3.25 2.328125l0 -2.921875l4.421875 -3.28125l-1.25 -1.109375l-3.171875 0l0 -2.5l11.1875 0zm-11.1875 13.516266l0 -2.390625l8.609375 0l0 2.390625l-8.609375 0zm9.703125 -2.203125q0.40625 -0.40625 1.0 -0.40625q0.59375 0 1.0 0.40625q0.40625 0.421875 0.40625 1.0q0 0.59375 -0.40625 1.0q-0.40625 0.421875 -1.0 0.421875q-0.59375 0 -1.0 -0.421875q-0.40625 -0.40625 -0.40625 -1.0q0 -0.578125 0.40625 -1.0zm-0.953125 9.437622q0 1.5625 -1.234375 2.734375q-1.21875 1.171875 -3.140625 1.171875q-1.90625 0 -3.203125 -1.203125q-1.296875 -1.203125 -1.296875 -2.734375q0 -1.515625 1.265625 -2.53125l-1.140625 0l0 -2.390625l11.875 0l0 2.390625l-4.234375 0q1.109375 1.0 1.109375 2.5625zm-4.453125 -2.59375q-1.046875 0 -1.71875 0.578125q-0.65625 0.59375 -0.65625 1.421875q0 0.84375 0.65625 1.453125q0.671875 0.625 1.703125 0.625q1.046875 0 1.75 -0.609375q0.703125 -0.59375 0.703125 -1.453125q0 -0.84375 -0.703125 -1.4375q-0.6875 -0.578125 -1.734375 -0.578125zm-4.296875 15.609161l0 -2.265625l1.046875 0q-1.171875 -0.921875 -1.171875 -2.296875q0 -1.359375 0.78125 -2.296875q0.796875 -0.921875 2.109375 -0.921875q1.328125 0 1.984375 0.953125q0.65625 0.96875 0.65625 2.625l0 1.796875l0.046875 0q1.375 0 1.375 -1.453125q0 -0.625 -0.25 -1.328125q-0.234375 -0.6875 -0.609375 -1.171875l1.546875 -1.0625q1.234375 1.6875 1.234375 3.859375q0 1.578125 -0.78125 2.5625q-0.78125 1.0 -2.484375 1.0l-5.484375 0zm3.28125 -2.421875l0.421875 0l0 -1.5q0 -1.4375 -0.90625 -1.4375q-0.453125 0 -0.703125 0.34375q-0.25 0.34375 -0.25 0.984375q0 0.640625 0.390625 1.125q0.390625 0.484375 1.046875 0.484375zm1.515625 7.003998l-4.796875 0l0 -2.390625l8.609375 0l0 2.390625l-0.96875 0q1.109375 1.09375 1.109375 2.453125q0 1.359375 -0.96875 2.28125q-0.953125 0.921875 -2.546875 0.921875l-5.234375 0l0 -2.40625l4.859375 0q1.984375 0 1.984375 -1.453125q0 -0.71875 -0.515625 -1.265625q-0.515625 -0.53125 -1.53125 -0.53125zm-4.796875 15.145905l0 -2.265625l1.046875 0q-1.171875 -0.921875 -1.171875 -2.296875q0 -1.359375 0.78125 -2.296875q0.796875 -0.921875 2.109375 -0.921875q1.328125 0 1.984375 0.953125q0.65625 0.96875 0.65625 2.625l0 1.796875l0.046875 0q1.375 0 1.375 -1.453125q0 -0.625 -0.25 -1.328125q-0.234375 -0.6875 -0.609375 -1.171875l1.546875 -1.0625q1.234375 1.6875 1.234375 3.859375q0 1.578125 -0.78125 2.5625q-0.78125 1.0 -2.484375 1.0l-5.484375 0zm3.28125 -2.421875l0.421875 0l0 -1.5q0 -1.4375 -0.90625 -1.4375q-0.453125 0 -0.703125 0.34375q-0.25 0.34375 -0.25 0.984375q0 0.640625 0.390625 1.125q0.390625 0.484375 1.046875 0.484375z" fill-rule="nonzero"></path><path fill="#000000" fill-opacity="0.0" d="m271.34647 307.77954l450.07877 -1.3858337" fill-rule="nonzero"></path><path stroke="#000000" stroke-width="2.0" stroke-linejoin="round" stroke-linecap="butt" d="m271.34647 307.77954l438.07883 -1.348877" fill-rule="evenodd"></path><path fill="#000000" stroke="#000000" stroke-width="2.0" stroke-linecap="butt" d="m709.4354 309.7341l9.065979 -3.3313904l-9.086304 -3.2755127z" fill-rule="evenodd"></path><path fill="#000000" fill-opacity="0.0" d="m814.93964 306.3937l37.700806 0.03149414" fill-rule="nonzero"></path><path stroke="#000000" stroke-width="2.0" stroke-linejoin="round" stroke-linecap="butt" d="m814.93964 306.3937l25.700806 0.021453857" fill-rule="evenodd"></path><path fill="#000000" stroke="#000000" stroke-width="2.0" stroke-linecap="butt" d="m840.6377 309.71863l9.078918 -3.295868l-9.073425 -3.3110657z" fill-rule="evenodd"></path></g></svg>

