<?xml version="1.0" standalone="yes"?>

<svg version="1.1" viewBox="0.0 0.0 960.0 720.0" fill="none" stroke="none" stroke-linecap="square" stroke-miterlimit="10" xmlns="http://www.w3.org/2000/svg" xmlns:xlink="http://www.w3.org/1999/xlink"><clipPath id="p.0"><path d="m0 0l960.0 0l0 720.0l-960.0 0l0 -720.0z" clip-rule="nonzero"></path></clipPath><g clip-path="url(#p.0)"><path fill="#000000" fill-opacity="0.0" d="m0 0l960.0 0l0 720.0l-960.0 0z" fill-rule="nonzero"></path><path fill="#ffffff" d="m721.4278 170.64961l0 0c0 6.4556427 20.93335 11.688965 46.75592 11.688965c25.82257 0 46.75592 -5.233322 46.75592 -11.688965l0 79.488174c0 6.455658 -20.93335 11.688995 -46.75592 11.688995c-25.82257 0 -46.75592 -5.2333374 -46.75592 -11.688995z" fill-rule="nonzero"></path><path fill="#ffffff" d="m721.4278 170.64961l0 0c0 -6.4556427 20.93335 -11.68898 46.75592 -11.68898c25.82257 0 46.75592 5.2333374 46.75592 11.68898l0 0c0 6.4556427 -20.93335 11.688965 -46.75592 11.688965c-25.82257 0 -46.75592 -5.233322 -46.75592 -11.688965z" fill-rule="nonzero"></path><path fill="#000000" fill-opacity="0.0" d="m814.93964 170.64961l0 0c0 6.4556427 -20.93335 11.688965 -46.75592 11.688965c-25.82257 0 -46.75592 -5.233322 -46.75592 -11.688965l0 0c0 -6.4556427 20.93335 -11.68898 46.75592 -11.68898c25.82257 0 46.75592 5.2333374 46.75592 11.68898l0 79.488174c0 6.455658 -20.93335 11.688995 -46.75592 11.688995c-25.82257 0 -46.75592 -5.2333374 -46.75592 -11.688995l0 -79.488174" fill-rule="nonzero"></path><path stroke="#000000" stroke-width="2.0" stroke-linejoin="round" stroke-linecap="butt" d="m814.93964 170.64961l0 0c0 6.4556427 -20.93335 11.688965 -46.75592 11.688965c-25.82257 0 -46.75592 -5.233322 -46.75592 -11.688965l0 0c0 -6.4556427 20.93335 -11.68898 46.75592 -11.68898c25.82257 0 46.75592 5.2333374 46.75592 11.68898l0 79.488174c0 6.455658 -20.93335 11.688995 -46.75592 11.688995c-25.82257 0 -46.75592 -5.2333374 -46.75592 -11.688995l0 -79.488174" fill-rule="nonzero"></path><path fill="#ffffff" d="m853.50397 161.88977l37.385803 0l0 105.8425l-18.692932 18.692932l-18.692871 0z" fill-rule="nonzero"></path><path fill="#cbcbcb" d="m872.19684 286.4252l3.7385864 -14.954346l14.954346 -3.7385864z" fill-rule="nonzero"></path><path fill="#000000" fill-opacity="0.0" d="m872.19684 286.4252l3.7385864 -14.954346l14.954346 -3.7385864l-18.692932 18.692932l-18.692871 0l0 -124.53543l37.385803 0l0 105.8425" fill-rule="nonzero"></path><path stroke="#000000" stroke-width="2.0" stroke-linejoin="round" stroke-linecap="butt" d="m872.19684 286.4252l3.7385864 -14.954346l14.954346 -3.7385864l-18.692932 18.692932l-18.692871 0l0 -124.53543l37.385803 0l0 105.8425" fill-rule="nonzero"></path><path fill="#ffffff" d="m106.1811 220.78609l0 0c0 2.985382 9.680527 5.4055176 21.622047 5.4055176c11.941528 0 21.622055 -2.4201355 21.622055 -5.4055176l0 36.74803c0 2.985382 -9.680527 5.4055176 -21.622055 5.4055176c-11.941521 0 -21.622047 -2.4201355 -21.622047 -5.4055176z" fill-rule="nonzero"></path><path fill="#ffffff" d="m106.1811 220.78609l0 0c0 -2.985382 9.680527 -5.4055023 21.622047 -5.4055023c11.941528 0 21.622055 2.4201202 21.622055 5.4055023l0 0c0 2.985382 -9.680527 5.4055176 -21.622055 5.4055176c-11.941521 0 -21.622047 -2.4201355 -21.622047 -5.4055176z" fill-rule="nonzero"></path><path fill="#000000" fill-opacity="0.0" d="m149.4252 220.78609l0 0c0 2.985382 -9.680527 5.4055176 -21.622055 5.4055176c-11.941521 0 -21.622047 -2.4201355 -21.622047 -5.4055176l0 0c0 -2.985382 9.680527 -5.4055023 21.622047 -5.4055023c11.941528 0 21.622055 2.4201202 21.622055 5.4055023l0 36.74803c0 2.985382 -9.680527 5.4055176 -21.622055 5.4055176c-11.941521 0 -21.622047 -2.4201355 -21.622047 -5.4055176l0 -36.74803" fill-rule="nonzero"></path><path stroke="#000000" stroke-width="2.0" stroke-linejoin="round" stroke-linecap="butt" d="m149.4252 220.78609l0 0c0 2.985382 -9.680527 5.4055176 -21.622055 5.4055176c-11.941521 0 -21.622047 -2.4201355 -21.622047 -5.4055176l0 0c0 -2.985382 9.680527 -5.4055023 21.622047 -5.4055023c11.941528 0 21.622055 2.4201202 21.622055 5.4055023l0 36.74803c0 2.985382 -9.680527 5.4055176 -21.622055 5.4055176c-11.941521 0 -21.622047 -2.4201355 -21.622047 -5.4055176l0 -36.74803" fill-rule="nonzero"></path><path fill="#ffffff" d="m214.32808 239.16011l0 0c0 -14.611633 11.845062 -26.456696 26.456696 -26.456696l0 0c7.016754 0 13.746109 2.787384 18.707718 7.7489777c4.9615784 4.9615936 7.7489624 11.690964 7.7489624 18.707718l0 0c0 14.611618 -11.845047 26.45668 -26.45668 26.45668l0 0c-14.611633 0 -26.456696 -11.845062 -26.456696 -26.45668z" fill-rule="nonzero"></path><path stroke="#000000" stroke-width="2.0" stroke-linejoin="round" stroke-linecap="butt" d="m214.32808 239.16011l0 0c0 -14.611633 11.845062 -26.456696 26.456696 -26.456696l0 0c7.016754 0 13.746109 2.787384 18.707718 7.7489777c4.9615784 4.9615936 7.7489624 11.690964 7.7489624 18.707718l0 0c0 14.611618 -11.845047 26.45668 -26.45668 26.45668l0 0c-14.611633 0 -26.456696 -11.845062 -26.456696 -26.45668z" fill-rule="nonzero"></path><path fill="#ffffff" d="m90.1811 102.96063l181.16537 0l0 73.63779l-181.16537 0z" fill-rule="nonzero"></path><path stroke="#000000" stroke-width="2.0" stroke-linejoin="round" stroke-linecap="butt" d="m90.1811 102.96063l181.16537 0l0 73.63779l-181.16537 0z" fill-rule="nonzero"></path><path fill="#ffffff" d="m622.5066 209.32283l0 0c0 -14.611618 11.845032 -26.456696 26.456665 -26.456696l0 0c7.0167236 0 13.746094 2.7873993 18.707703 7.748993c4.961609 4.9615936 7.7489624 11.6909485 7.7489624 18.707703l0 0c0 14.611633 -11.845032 26.456696 -26.456665 26.456696l0 0c-14.611633 0 -26.456665 -11.845062 -26.456665 -26.456696z" fill-rule="nonzero"></path><path stroke="#000000" stroke-width="2.0" stroke-linejoin="round" stroke-linecap="butt" d="m622.5066 209.32283l0 0c0 -14.611618 11.845032 -26.456696 26.456665 -26.456696l0 0c7.0167236 0 13.746094 2.7873993 18.707703 7.748993c4.961609 4.9615936 7.7489624 11.6909485 7.7489624 18.707703l0 0c0 14.611633 -11.845032 26.456696 -26.456665 26.456696l0 0c-14.611633 0 -26.456665 -11.845062 -26.456665 -26.456696z" fill-rule="nonzero"></path><path fill="#ffffff" d="m423.55118 362.97113l0 0c5.622864 0 10.181091 -18.23294 10.181091 -40.724396c0 -22.491486 -4.5582275 -40.724426 -10.181091 -40.724426l96.89761 0c5.622925 0 10.181152 18.23294 10.181152 40.724426c0 22.491455 -4.5582275 40.724396 -10.181152 40.724396z" fill-rule="nonzero"></path><path fill="#ffffff" d="m423.55118 362.97113l0 0c-5.622864 0 -10.181091 -18.23294 -10.181091 -40.724396c0 -22.491486 4.5582275 -40.724426 10.181091 -40.724426l0 0c5.622864 0 10.181091 18.23294 10.181091 40.724426c0 22.491455 -4.5582275 40.724396 -10.181091 40.724396z" fill-rule="nonzero"></path><path fill="#000000" fill-opacity="0.0" d="m423.55118 281.5223l0 0c5.622864 0 10.181091 18.23294 10.181091 40.724426c0 22.491455 -4.5582275 40.724396 -10.181091 40.724396l0 0c-5.622864 0 -10.181091 -18.23294 -10.181091 -40.724396c0 -22.491486 4.5582275 -40.724426 10.181091 -40.724426l96.89761 0c5.622925 0 10.181152 18.23294 10.181152 40.724426c0 22.491455 -4.5582275 40.724396 -10.181152 40.724396l-96.89761 0" fill-rule="nonzero"></path><path stroke="#000000" stroke-width="2.0" stroke-linejoin="round" stroke-linecap="butt" d="m423.55118 281.5223l0 0c5.622864 0 10.181091 18.23294 10.181091 40.724426c0 22.491455 -4.5582275 40.724396 -10.181091 40.724396l0 0c-5.622864 0 -10.181091 -18.23294 -10.181091 -40.724396c0 -22.491486 4.5582275 -40.724426 10.181091 -40.724426l96.89761 0c5.622925 0 10.181152 18.23294 10.181152 40.724426c0 22.491455 -4.5582275 40.724396 -10.181152 40.724396l-96.89761 0" fill-rule="nonzero"></path><path fill="#000000" fill-opacity="0.0" d="m90.1811 115.779526l181.16537 0l0 48.0l-181.16537 0z" fill-rule="nonzero"></path><path fill="#000000" d="m131.00082 142.69952l-1.234375 -2.875l-5.5625 0l-1.234375 2.875l-3.15625 0l5.734375 -13.28125l2.875 0l5.734375 13.28125l-3.15625 0zm-4.0 -9.328125l-1.671875 3.859375l3.3125 0l-1.640625 -3.859375zm14.1020355 -1.0625q1.78125 0 3.171875 1.5q1.40625 1.484375 1.40625 3.75q0 2.25 -1.40625 3.78125q-1.390625 1.515625 -3.265625 1.515625q-1.859375 0 -3.0 -1.5l0 5.03125l-2.859375 0l0 -13.90625l2.859375 0l0 1.140625q1.3125 -1.3125 3.09375 -1.3125zm-3.140625 5.296875q0 1.234375 0.6875 2.03125q0.703125 0.78125 1.6875 0.78125q1.0 0 1.734375 -0.78125q0.734375 -0.796875 0.734375 -2.03125q0 -1.234375 -0.71875 -2.0625q-0.71875 -0.84375 -1.734375 -0.84375q-1.0 0 -1.703125 0.828125q-0.6875 0.828125 -0.6875 2.078125zm15.565689 -5.296875q1.78125 0 3.171875 1.5q1.40625 1.484375 1.40625 3.75q0 2.25 -1.40625 3.78125q-1.390625 1.515625 -3.265625 1.515625q-1.859375 0 -3.0 -1.5l0 5.03125l-2.859375 0l0 -13.90625l2.859375 0l0 1.140625q1.3125 -1.3125 3.09375 -1.3125zm-3.140625 5.296875q0 1.234375 0.6875 2.03125q0.703125 0.78125 1.6875 0.78125q1.0 0 1.734375 -0.78125q0.734375 -0.796875 0.734375 -2.03125q0 -1.234375 -0.71875 -2.0625q-0.71875 -0.84375 -1.734375 -0.84375q-1.0 0 -1.703125 0.828125q-0.6875 0.828125 -0.6875 2.078125zm12.471939 5.09375l-2.859375 0l0 -14.09375l2.859375 0l0 14.09375zm5.447632 0l-2.859375 0l0 -10.21875l2.859375 0l0 10.21875zm-2.609375 -11.515625q-0.484375 -0.5 -0.484375 -1.1875q0 -0.703125 0.484375 -1.1875q0.484375 -0.5 1.1875 -0.5q0.703125 0 1.1875 0.5q0.484375 0.484375 0.484375 1.1875q0 0.6875 -0.484375 1.1875q-0.484375 0.484375 -1.1875 0.484375q-0.703125 0 -1.1875 -0.484375zm10.103882 9.140625q1.421875 0 2.5625 -1.421875l1.6875 1.890625q-1.96875 2.0625 -4.265625 2.0625q-2.296875 0 -3.890625 -1.453125q-1.578125 -1.453125 -1.578125 -3.796875q0 -2.359375 1.59375 -3.828125q1.609375 -1.46875 3.8125 -1.46875q1.109375 0 2.234375 0.453125q1.125 0.453125 1.984375 1.34375l-1.484375 1.9375q-0.484375 -0.578125 -1.203125 -0.90625q-0.71875 -0.328125 -1.421875 -0.328125q-1.109375 0 -1.921875 0.734375q-0.8125 0.734375 -0.8125 2.046875q0 1.296875 0.8125 2.015625q0.8125 0.71875 1.890625 0.71875zm14.639191 2.375l-2.671875 0l0 -1.234375q-1.109375 1.390625 -2.734375 1.390625q-1.625 0 -2.734375 -0.9375q-1.09375 -0.953125 -1.09375 -2.515625q0 -1.5625 1.140625 -2.34375q1.140625 -0.78125 3.109375 -0.78125l2.140625 0l0 -0.0625q0 -1.625 -1.734375 -1.625q-0.734375 0 -1.5625 0.296875q-0.828125 0.28125 -1.40625 0.71875l-1.265625 -1.84375q2.015625 -1.453125 4.59375 -1.453125q1.859375 0 3.03125 0.9375q1.1875 0.921875 1.1875 2.9375l0 6.515625zm-2.875 -3.890625l0 -0.5l-1.78125 0q-1.703125 0 -1.703125 1.0625q0 0.546875 0.40625 0.84375q0.40625 0.296875 1.15625 0.296875q0.765625 0 1.34375 -0.453125q0.578125 -0.46875 0.578125 -1.25zm8.675568 -4.28125l0 4.578125q0 0.59375 0.296875 0.921875q0.3125 0.328125 0.734375 0.328125q0.796875 0 1.34375 -0.71875l1.0625 2.0q-1.328125 1.21875 -2.8125 1.21875q-1.46875 0 -2.484375 -0.96875q-1.015625 -0.96875 -1.015625 -2.640625l0 -4.71875l-1.1875 0l0 -2.046875l1.1875 0l0 -3.0625l2.875 0l0 3.0625l2.46875 0l0 2.046875l-2.46875 0zm7.6618805 8.171875l-2.859375 0l0 -10.21875l2.859375 0l0 10.21875zm-2.609375 -11.515625q-0.484375 -0.5 -0.484375 -1.1875q0 -0.703125 0.484375 -1.1875q0.484375 -0.5 1.1875 -0.5q0.703125 0 1.1875 0.5q0.484375 0.484375 0.484375 1.1875q0 0.6875 -0.484375 1.1875q-0.484375 0.484375 -1.1875 0.484375q-0.703125 0 -1.1875 -0.484375zm7.478882 6.40625q0 1.25 0.703125 2.046875q0.71875 0.78125 1.828125 0.78125q1.125 0 1.828125 -0.78125q0.71875 -0.796875 0.71875 -2.046875q0 -1.25 -0.71875 -2.046875q-0.703125 -0.8125 -1.828125 -0.8125q-1.109375 0 -1.828125 0.8125q-0.703125 0.796875 -0.703125 2.046875zm7.953125 0q0 2.21875 -1.546875 3.75q-1.53125 1.515625 -3.859375 1.515625q-2.328125 0 -3.875 -1.515625q-1.53125 -1.53125 -1.53125 -3.75q0 -2.21875 1.53125 -3.75q1.546875 -1.53125 3.875 -1.53125q2.328125 0 3.859375 1.53125q1.546875 1.53125 1.546875 3.75zm4.7329254 -0.59375l0 5.703125l-2.859375 0l0 -10.21875l2.859375 0l0 1.140625q1.28125 -1.3125 2.890625 -1.3125q1.625 0 2.71875 1.140625q1.09375 1.140625 1.09375 3.03125l0 6.21875l-2.84375 0l0 -5.78125q0 -2.34375 -1.734375 -2.34375q-0.859375 0 -1.5 0.625q-0.625 0.609375 -0.625 1.796875zm13.237213 -7.578125l5.375 0l0 13.28125l-2.859375 0l0 -10.75l-2.515625 0l0 -2.53125z" fill-rule="nonzero"></path><path fill="#000000" fill-opacity="0.0" d="m696.29395 258.89764l143.77954 0l0 37.417328l-143.77954 0z" fill-rule="nonzero"></path><path fill="#000000" d="m723.7171 272.07013l0 2.234375l-5.5625 0l0 2.296875l5.0 0l0 2.125l-5.0 0l0 2.328125l5.734375 0l0 2.203125l-8.234375 0l0 -11.1875l8.0625 0zm4.5578003 11.1875l-2.390625 0l0 -11.875l2.390625 0l0 11.875zm9.593872 0l-2.265625 0l0 -1.046875q-0.921875 1.171875 -2.296875 1.171875q-1.359375 0 -2.296875 -0.78125q-0.921875 -0.796875 -0.921875 -2.109375q0 -1.328125 0.953125 -1.984375q0.96875 -0.65625 2.625 -0.65625l1.796875 0l0 -0.046875q0 -1.375 -1.453125 -1.375q-0.625 0 -1.328125 0.25q-0.6875 0.234375 -1.171875 0.609375l-1.0625 -1.546875q1.6875 -1.234375 3.859375 -1.234375q1.578125 0 2.5625 0.78125q1.0 0.78125 1.0 2.484375l0 5.484375zm-2.421875 -3.28125l0 -0.421875l-1.5 0q-1.4375 0 -1.4375 0.90625q0 0.453125 0.34375 0.703125q0.34375 0.25 0.984375 0.25q0.640625 0 1.125 -0.390625q0.484375 -0.390625 0.484375 -1.046875zm11.082153 0.609375q0 1.265625 -0.9375 2.03125q-0.921875 0.765625 -2.375 0.765625q-0.953125 0 -2.0 -0.34375q-1.03125 -0.34375 -1.859375 -1.015625l1.046875 -1.5q1.34375 1.03125 2.875 1.03125q0.453125 0 0.71875 -0.171875q0.28125 -0.1875 0.28125 -0.484375q0 -0.3125 -0.375 -0.5625q-0.375 -0.265625 -1.09375 -0.484375q-0.703125 -0.21875 -1.078125 -0.375q-0.375 -0.171875 -0.859375 -0.46875q-0.984375 -0.609375 -0.984375 -1.796875q0 -1.203125 0.953125 -1.953125q0.96875 -0.75 2.484375 -0.75q1.53125 0 3.046875 1.015625l-0.890625 1.609375q-1.125 -0.765625 -2.234375 -0.765625q-1.109375 0 -1.109375 0.609375q0 0.328125 0.34375 0.53125q0.359375 0.1875 1.171875 0.4375q0.8125 0.25 1.15625 0.390625q0.34375 0.140625 0.828125 0.421875q0.890625 0.546875 0.890625 1.828125zm4.7106323 -4.203125l0 3.84375q0 0.5 0.25 0.78125q0.265625 0.28125 0.609375 0.28125q0.671875 0 1.140625 -0.609375l0.890625 1.6875q-1.109375 1.015625 -2.359375 1.015625q-1.234375 0 -2.09375 -0.8125q-0.859375 -0.8125 -0.859375 -2.21875l0 -3.96875l-1.0 0l0 -1.734375l1.0 0l0 -2.578125l2.421875 0l0 2.578125l2.078125 0l0 1.734375l-2.078125 0zm6.571289 6.875l-2.390625 0l0 -8.609375l2.390625 0l0 8.609375zm-2.203125 -9.703125q-0.40625 -0.40625 -0.40625 -1.0q0 -0.59375 0.40625 -1.0q0.421875 -0.40625 1.0 -0.40625q0.59375 0 1.0 0.40625q0.421875 0.40625 0.421875 1.0q0 0.59375 -0.421875 1.0q-0.40625 0.40625 -1.0 0.40625q-0.578125 0 -1.0 -0.40625zm8.609497 7.703125q1.203125 0 2.15625 -1.203125l1.421875 1.609375q-1.65625 1.71875 -3.59375 1.71875q-1.9375 0 -3.28125 -1.21875q-1.328125 -1.21875 -1.328125 -3.1875q0 -1.984375 1.34375 -3.21875q1.359375 -1.25 3.21875 -1.25q0.921875 0 1.875 0.390625q0.953125 0.375 1.671875 1.125l-1.25 1.640625q-0.40625 -0.5 -1.015625 -0.765625q-0.59375 -0.28125 -1.1875 -0.28125q-0.9375 0 -1.625 0.625q-0.6875 0.609375 -0.6875 1.703125q0 1.09375 0.6875 1.703125q0.6875 0.609375 1.59375 0.609375zm11.655762 -0.671875q0 1.265625 -0.9375 2.03125q-0.921875 0.765625 -2.375 0.765625q-0.953125 0 -2.0 -0.34375q-1.03125 -0.34375 -1.859375 -1.015625l1.046875 -1.5q1.34375 1.03125 2.875 1.03125q0.453125 0 0.71875 -0.171875q0.28125 -0.1875 0.28125 -0.484375q0 -0.3125 -0.375 -0.5625q-0.375 -0.265625 -1.09375 -0.484375q-0.703125 -0.21875 -1.078125 -0.375q-0.375 -0.171875 -0.859375 -0.46875q-0.984375 -0.609375 -0.984375 -1.796875q0 -1.203125 0.953125 -1.953125q0.96875 -0.75 2.484375 -0.75q1.53125 0 3.046875 1.015625l-0.890625 1.609375q-1.125 -0.765625 -2.234375 -0.765625q-1.109375 0 -1.109375 0.609375q0 0.328125 0.34375 0.53125q0.359375 0.1875 1.171875 0.4375q0.8125 0.25 1.15625 0.390625q0.34375 0.140625 0.828125 0.421875q0.890625 0.546875 0.890625 1.828125zm9.304382 1.421875q-1.453125 1.375 -3.421875 1.375q-1.953125 0 -3.234375 -1.203125q-1.28125 -1.203125 -1.28125 -3.234375q0 -2.046875 1.296875 -3.234375q1.3125 -1.203125 3.078125 -1.203125q1.78125 0 3.015625 1.078125q1.25 1.0625 1.25 2.9375l0 1.28125l-6.265625 0q0.109375 0.703125 0.734375 1.15625q0.625 0.4375 1.40625 0.4375q1.265625 0 2.078125 -0.84375l1.34375 1.453125zm-1.734375 -3.921875q-0.078125 -0.765625 -0.578125 -1.171875q-0.484375 -0.421875 -1.203125 -0.421875q-0.703125 0 -1.296875 0.4375q-0.59375 0.421875 -0.6875 1.15625l3.765625 0zm11.4817505 5.171875l-2.265625 0l0 -1.046875q-0.921875 1.171875 -2.296875 1.171875q-1.359375 0 -2.296875 -0.78125q-0.921875 -0.796875 -0.921875 -2.109375q0 -1.328125 0.953125 -1.984375q0.96875 -0.65625 2.625 -0.65625l1.796875 0l0 -0.046875q0 -1.375 -1.453125 -1.375q-0.625 0 -1.328125 0.25q-0.6875 0.234375 -1.171875 0.609375l-1.0625 -1.546875q1.6875 -1.234375 3.859375 -1.234375q1.578125 0 2.5625 0.78125q1.0 0.78125 1.0 2.484375l0 5.484375zm-2.421875 -3.28125l0 -0.421875l-1.5 0q-1.4375 0 -1.4375 0.90625q0 0.453125 0.34375 0.703125q0.34375 0.25 0.984375 0.25q0.640625 0 1.125 -0.390625q0.484375 -0.390625 0.484375 -1.046875zm9.129028 -3.21875q-1.0625 0 -1.59375 0.765625q-0.53125 0.765625 -0.53125 2.0l0 3.734375l-2.390625 0l0 -8.609375l2.390625 0l0 1.140625q0.46875 -0.53125 1.15625 -0.890625q0.703125 -0.375 1.421875 -0.390625l0.015625 2.25l-0.46875 0zm6.185425 4.5q1.203125 0 2.15625 -1.203125l1.421875 1.609375q-1.65625 1.71875 -3.59375 1.71875q-1.9375 0 -3.28125 -1.21875q-1.328125 -1.21875 -1.328125 -3.1875q0 -1.984375 1.34375 -3.21875q1.359375 -1.25 3.21875 -1.25q0.921875 0 1.875 0.390625q0.953125 0.375 1.671875 1.125l-1.25 1.640625q-0.40625 -0.5 -1.015625 -0.765625q-0.59375 -0.28125 -1.1875 -0.28125q-0.9375 0 -1.625 0.625q-0.6875 0.609375 -0.6875 1.703125q0 1.09375 0.6875 1.703125q0.6875 0.609375 1.59375 0.609375zm7.5776367 -2.640625l0 4.640625l-2.390625 0l0 -11.875l2.390625 0l0 4.234375q1.09375 -1.109375 2.4375 -1.109375q1.359375 0 2.28125 0.96875q0.9375 0.953125 0.9375 2.546875l0 5.234375l-2.40625 0l0 -4.703125q0 -1.984375 -1.453125 -1.984375q-0.71875 0 -1.265625 0.53125q-0.53125 0.515625 -0.53125 1.515625z" fill-rule="nonzero"></path><path fill="#000000" fill-opacity="0.0" d="m888.0735 161.88977l0 110.86612l-48.0 0l0 -110.86612z" fill-rule="nonzero"></path><path fill="#000000" d="m874.901 172.26477l0 2.5l-4.59375 0l4.59375 4.21875l0 3.09375l-4.953125 -4.453125q-0.796875 0.578125 -2.984375 2.125q-2.171875 1.5625 -3.25 2.328125l0 -2.921875l4.421875 -3.28125l-1.25 -1.109375l-3.171875 0l0 -2.5l11.1875 0zm-11.1875 13.516266l0 -2.390625l8.609375 0l0 2.390625l-8.609375 0zm9.703125 -2.203125q0.40625 -0.40625 1.0 -0.40625q0.59375 0 1.0 0.40625q0.40625 0.421875 0.40625 1.0q0 0.59375 -0.40625 1.0q-0.40625 0.421875 -1.0 0.421875q-0.59375 0 -1.0 -0.421875q-0.40625 -0.40625 -0.40625 -1.0q0 -0.578125 0.40625 -1.0zm-0.953125 9.437637q0 1.5625 -1.234375 2.734375q-1.21875 1.171875 -3.140625 1.171875q-1.90625 0 -3.203125 -1.203125q-1.296875 -1.203125 -1.296875 -2.734375q0 -1.515625 1.265625 -2.53125l-1.140625 0l0 -2.390625l11.875 0l0 2.390625l-4.234375 0q1.109375 1.0 1.109375 2.5625zm-4.453125 -2.59375q-1.046875 0 -1.71875 0.578125q-0.65625 0.59375 -0.65625 1.421875q0 0.84375 0.65625 1.453125q0.671875 0.625 1.703125 0.625q1.046875 0 1.75 -0.609375q0.703125 -0.59375 0.703125 -1.453125q0 -0.84375 -0.703125 -1.4375q-0.6875 -0.578125 -1.734375 -0.578125zm-4.296875 15.609146l0 -2.265625l1.046875 0q-1.171875 -0.921875 -1.171875 -2.296875q0 -1.359375 0.78125 -2.296875q0.796875 -0.921875 2.109375 -0.921875q1.328125 0 1.984375 0.953125q0.65625 0.96875 0.65625 2.625l0 1.796875l0.046875 0q1.375 0 1.375 -1.453125q0 -0.625 -0.25 -1.328125q-0.234375 -0.6875 -0.609375 -1.171875l1.546875 -1.0625q1.234375 1.6875 1.234375 3.859375q0 1.578125 -0.78125 2.5625q-0.78125 1.0 -2.484375 1.0l-5.484375 0zm3.28125 -2.421875l0.421875 0l0 -1.5q0 -1.4375 -0.90625 -1.4375q-0.453125 0 -0.703125 0.34375q-0.25 0.34375 -0.25 0.984375q0 0.640625 0.390625 1.125q0.390625 0.484375 1.046875 0.484375zm1.515625 7.004013l-4.796875 0l0 -2.390625l8.609375 0l0 2.390625l-0.96875 0q1.109375 1.09375 1.109375 2.453125q0 1.359375 -0.96875 2.28125q-0.953125 0.921875 -2.546875 0.921875l-5.234375 0l0 -2.40625l4.859375 0q1.984375 0 1.984375 -1.453125q0 -0.71875 -0.515625 -1.265625q-0.515625 -0.53125 -1.53125 -0.53125zm-4.796875 15.145889l0 -2.265625l1.046875 0q-1.171875 -0.921875 -1.171875 -2.296875q0 -1.359375 0.78125 -2.296875q0.796875 -0.921875 2.109375 -0.921875q1.328125 0 1.984375 0.953125q0.65625 0.96875 0.65625 2.625l0 1.796875l0.046875 0q1.375 0 1.375 -1.453125q0 -0.625 -0.25 -1.328125q-0.234375 -0.6875 -0.609375 -1.171875l1.546875 -1.0625q1.234375 1.6875 1.234375 3.859375q0 1.578125 -0.78125 2.5625q-0.78125 1.0 -2.484375 1.0l-5.484375 0zm3.28125 -2.421875l0.421875 0l0 -1.5q0 -1.4375 -0.90625 -1.4375q-0.453125 0 -0.703125 0.34375q-0.25 0.34375 -0.25 0.984375q0 0.640625 0.390625 1.125q0.390625 0.484375 1.046875 0.484375z" fill-rule="nonzero"></path><path fill="#000000" fill-opacity="0.0" d="m386.09448 363.3176l171.81104 0l0 37.417297l-171.81104 0z" fill-rule="nonzero"></path><path fill="#000000" d="m418.60648 380.6307l-3.015625 6.125l-1.5 0l-3.0 -6.125l0 7.046875l-2.5 0l0 -11.1875l3.375 0l2.875 6.140625l2.90625 -6.140625l3.359375 0l0 11.1875l-2.5 0l0 -7.046875zm12.467163 5.796875q-1.453125 1.375 -3.421875 1.375q-1.953125 0 -3.234375 -1.203125q-1.28125 -1.203125 -1.28125 -3.234375q0 -2.046875 1.296875 -3.234375q1.3125 -1.203125 3.078125 -1.203125q1.78125 0 3.015625 1.078125q1.25 1.0625 1.25 2.9375l0 1.28125l-6.265625 0q0.109375 0.703125 0.734375 1.15625q0.625 0.4375 1.40625 0.4375q1.265625 0 2.078125 -0.84375l1.34375 1.453125zm-1.734375 -3.921875q-0.078125 -0.765625 -0.578125 -1.171875q-0.484375 -0.421875 -1.203125 -0.421875q-0.703125 0 -1.296875 0.4375q-0.59375 0.421875 -0.6875 1.15625l3.765625 0zm10.638031 2.5q0 1.265625 -0.9375 2.03125q-0.921875 0.765625 -2.375 0.765625q-0.953125 0 -2.0 -0.34375q-1.03125 -0.34375 -1.859375 -1.015625l1.046875 -1.5q1.34375 1.03125 2.875 1.03125q0.453125 0 0.71875 -0.171875q0.28125 -0.1875 0.28125 -0.484375q0 -0.3125 -0.375 -0.5625q-0.375 -0.265625 -1.09375 -0.484375q-0.703125 -0.21875 -1.078125 -0.375q-0.375 -0.171875 -0.859375 -0.46875q-0.984375 -0.609375 -0.984375 -1.796875q0 -1.203125 0.953125 -1.953125q0.96875 -0.75 2.484375 -0.75q1.53125 0 3.046875 1.015625l-0.890625 1.609375q-1.125 -0.765625 -2.234375 -0.765625q-1.109375 0 -1.109375 0.609375q0 0.328125 0.34375 0.53125q0.359375 0.1875 1.171875 0.4375q0.8125 0.25 1.15625 0.390625q0.34375 0.140625 0.828125 0.421875q0.890625 0.546875 0.890625 1.828125zm8.320007 0q0 1.265625 -0.9375 2.03125q-0.921875 0.765625 -2.375 0.765625q-0.953125 0 -2.0 -0.34375q-1.03125 -0.34375 -1.859375 -1.015625l1.046875 -1.5q1.34375 1.03125 2.875 1.03125q0.453125 0 0.71875 -0.171875q0.28125 -0.1875 0.28125 -0.484375q0 -0.3125 -0.375 -0.5625q-0.375 -0.265625 -1.09375 -0.484375q-0.703125 -0.21875 -1.078125 -0.375q-0.375 -0.171875 -0.859375 -0.46875q-0.984375 -0.609375 -0.984375 -1.796875q0 -1.203125 0.953125 -1.953125q0.96875 -0.75 2.484375 -0.75q1.53125 0 3.046875 1.015625l-0.890625 1.609375q-1.125 -0.765625 -2.234375 -0.765625q-1.109375 0 -1.109375 0.609375q0 0.328125 0.34375 0.53125q0.359375 0.1875 1.171875 0.4375q0.8125 0.25 1.15625 0.390625q0.34375 0.140625 0.828125 0.421875q0.890625 0.546875 0.890625 1.828125zm9.163788 2.671875l-2.265625 0l0 -1.046875q-0.921875 1.171875 -2.296875 1.171875q-1.359375 0 -2.296875 -0.78125q-0.921875 -0.796875 -0.921875 -2.109375q0 -1.328125 0.953125 -1.984375q0.96875 -0.65625 2.625 -0.65625l1.796875 0l0 -0.046875q0 -1.375 -1.453125 -1.375q-0.625 0 -1.328125 0.25q-0.6875 0.234375 -1.171875 0.609375l-1.0625 -1.546875q1.6875 -1.234375 3.859375 -1.234375q1.578125 0 2.5625 0.78125q1.0 0.78125 1.0 2.484375l0 5.484375zm-2.421875 -3.28125l0 -0.421875l-1.5 0q-1.4375 0 -1.4375 0.90625q0 0.453125 0.34375 0.703125q0.34375 0.25 0.984375 0.25q0.640625 0 1.125 -0.390625q0.484375 -0.390625 0.484375 -1.046875zm10.644623 -1.203125q0 -1.03125 -0.578125 -1.625q-0.578125 -0.59375 -1.4375 -0.59375q-0.84375 0 -1.453125 0.59375q-0.609375 0.59375 -0.609375 1.625q0 1.015625 0.59375 1.65625q0.59375 0.625 1.453125 0.625q0.875 0 1.453125 -0.625q0.578125 -0.625 0.578125 -1.65625zm0.328125 3.03125q-1.125 1.265625 -2.828125 1.265625q-1.6875 0 -2.84375 -1.140625q-1.15625 -1.15625 -1.15625 -3.0625q0 -1.90625 1.1875 -3.125q1.203125 -1.234375 2.734375 -1.234375q1.53125 0 2.546875 1.265625l0 -1.140625l2.390625 0l0 7.5q0 1.15625 -0.40625 2.046875q-0.390625 0.90625 -1.0625 1.421875q-1.328125 1.046875 -3.140625 1.046875q-0.953125 0 -1.953125 -0.3125q-1.0 -0.3125 -1.75 -0.890625l0.921875 -1.796875q1.1875 0.890625 2.5 0.890625q1.328125 0 2.09375 -0.65625q0.765625 -0.65625 0.765625 -2.078125zm11.765778 0.203125q-1.453125 1.375 -3.421875 1.375q-1.953125 0 -3.234375 -1.203125q-1.28125 -1.203125 -1.28125 -3.234375q0 -2.046875 1.296875 -3.234375q1.3125 -1.203125 3.078125 -1.203125q1.78125 0 3.015625 1.078125q1.25 1.0625 1.25 2.9375l0 1.28125l-6.265625 0q0.109375 0.703125 0.734375 1.15625q0.625 0.4375 1.40625 0.4375q1.265625 0 2.078125 -0.84375l1.34375 1.453125zm-1.734375 -3.921875q-0.078125 -0.765625 -0.578125 -1.171875q-0.484375 -0.421875 -1.203125 -0.421875q-0.703125 0 -1.296875 0.4375q-0.59375 0.421875 -0.6875 1.15625l3.765625 0zm19.73703 -0.484375q0 1.734375 -0.890625 3.125q-0.890625 1.390625 -2.390625 2.078125q0.140625 0.25 0.453125 0.421875q0.3125 0.15625 0.640625 0.15625q0.34375 0 0.65625 -0.109375q0.328125 -0.09375 0.515625 -0.234375q0.421875 -0.34375 0.59375 -0.65625l1.296875 1.546875q-1.375 1.453125 -3.4375 1.453125q-0.96875 0 -1.890625 -0.53125q-0.921875 -0.515625 -1.421875 -1.484375q-2.484375 0 -4.1875 -1.65625q-1.6875 -1.65625 -1.6875 -4.109375q0 -2.46875 1.6875 -4.125q1.703125 -1.65625 4.1875 -1.65625q2.484375 0 4.171875 1.65625q1.703125 1.65625 1.703125 4.125zm-2.546875 0q0 -1.5 -0.96875 -2.546875q-0.953125 -1.0625 -2.359375 -1.0625q-1.390625 0 -2.359375 1.0625q-0.953125 1.046875 -0.953125 2.546875q0 1.5 0.953125 2.546875q0.96875 1.046875 2.359375 1.046875q1.40625 0 2.359375 -1.046875q0.96875 -1.046875 0.96875 -2.546875zm9.982025 1.6875l0 -4.640625l2.421875 0l0 8.609375l-2.421875 0l0 -1.140625q-0.890625 1.265625 -2.3125 1.265625q-1.421875 0 -2.375 -0.875q-0.953125 -0.890625 -0.953125 -2.640625l0 -5.21875l2.40625 0l0 4.6875q0 1.984375 1.453125 1.984375q0.71875 0 1.25 -0.515625q0.53125 -0.515625 0.53125 -1.515625zm12.146271 2.71875q-1.453125 1.375 -3.421875 1.375q-1.953125 0 -3.234375 -1.203125q-1.28125 -1.203125 -1.28125 -3.234375q0 -2.046875 1.296875 -3.234375q1.3125 -1.203125 3.078125 -1.203125q1.78125 0 3.015625 1.078125q1.25 1.0625 1.25 2.9375l0 1.28125l-6.265625 0q0.109375 0.703125 0.734375 1.15625q0.625 0.4375 1.40625 0.4375q1.265625 0 2.078125 -0.84375l1.34375 1.453125zm-1.734375 -3.921875q-0.078125 -0.765625 -0.578125 -1.171875q-0.484375 -0.421875 -1.203125 -0.421875q-0.703125 0 -1.296875 0.4375q-0.59375 0.421875 -0.6875 1.15625l3.765625 0zm9.716187 1.203125l0 -4.640625l2.421875 0l0 8.609375l-2.421875 0l0 -1.140625q-0.890625 1.265625 -2.3125 1.265625q-1.421875 0 -2.375 -0.875q-0.953125 -0.890625 -0.953125 -2.640625l0 -5.21875l2.40625 0l0 4.6875q0 1.984375 1.453125 1.984375q0.71875 0 1.25 -0.515625q0.53125 -0.515625 0.53125 -1.515625zm12.14624 2.71875q-1.453125 1.375 -3.421875 1.375q-1.953125 0 -3.234375 -1.203125q-1.28125 -1.203125 -1.28125 -3.234375q0 -2.046875 1.296875 -3.234375q1.3125 -1.203125 3.078125 -1.203125q1.78125 0 3.015625 1.078125q1.25 1.0625 1.25 2.9375l0 1.28125l-6.265625 0q0.109375 0.703125 0.734375 1.15625q0.625 0.4375 1.40625 0.4375q1.265625 0 2.078125 -0.84375l1.34375 1.453125zm-1.734375 -3.921875q-0.078125 -0.765625 -0.578125 -1.171875q-0.484375 -0.421875 -1.203125 -0.421875q-0.703125 0 -1.296875 0.4375q-0.59375 0.421875 -0.6875 1.15625l3.765625 0z" fill-rule="nonzero"></path><path fill="#ffffff" d="m106.1811 409.14304l0 0c0 2.985382 9.680527 5.4055176 21.622047 5.4055176c11.941528 0 21.622055 -2.4201355 21.622055 -5.4055176l0 36.748047c0 2.985382 -9.680527 5.4055176 -21.622055 5.4055176c-11.941521 0 -21.622047 -2.4201355 -21.622047 -5.4055176z" fill-rule="nonzero"></path><path fill="#ffffff" d="m106.1811 409.14304l0 0c0 -2.985382 9.680527 -5.4055176 21.622047 -5.4055176c11.941528 0 21.622055 2.4201355 21.622055 5.4055176l0 0c0 2.985382 -9.680527 5.4055176 -21.622055 5.4055176c-11.941521 0 -21.622047 -2.4201355 -21.622047 -5.4055176z" fill-rule="nonzero"></path><path fill="#000000" fill-opacity="0.0" d="m149.4252 409.14304l0 0c0 2.985382 -9.680527 5.4055176 -21.622055 5.4055176c-11.941521 0 -21.622047 -2.4201355 -21.622047 -5.4055176l0 0c0 -2.985382 9.680527 -5.4055176 21.622047 -5.4055176c11.941528 0 21.622055 2.4201355 21.622055 5.4055176l0 36.748047c0 2.985382 -9.680527 5.4055176 -21.622055 5.4055176c-11.941521 0 -21.622047 -2.4201355 -21.622047 -5.4055176l0 -36.748047" fill-rule="nonzero"></path><path stroke="#000000" stroke-width="2.0" stroke-linejoin="round" stroke-linecap="butt" d="m149.4252 409.14304l0 0c0 2.985382 -9.680527 5.4055176 -21.622055 5.4055176c-11.941521 0 -21.622047 -2.4201355 -21.622047 -5.4055176l0 0c0 -2.985382 9.680527 -5.4055176 21.622047 -5.4055176c11.941528 0 21.622055 2.4201355 21.622055 5.4055176l0 36.748047c0 2.985382 -9.680527 5.4055176 -21.622055 5.4055176c-11.941521 0 -21.622047 -2.4201355 -21.622047 -5.4055176l0 -36.748047" fill-rule="nonzero"></path><path fill="#ffffff" d="m214.32808 427.51706l0 0c0 -14.611633 11.845062 -26.456696 26.456696 -26.456696l0 0c7.016754 0 13.746109 2.787384 18.707718 7.748993c4.9615784 4.9615784 7.7489624 11.6909485 7.7489624 18.707703l0 0c0 14.611633 -11.845047 26.456696 -26.45668 26.456696l0 0c-14.611633 0 -26.456696 -11.845062 -26.456696 -26.456696z" fill-rule="nonzero"></path><path stroke="#000000" stroke-width="2.0" stroke-linejoin="round" stroke-linecap="butt" d="m214.32808 427.51706l0 0c0 -14.611633 11.845062 -26.456696 26.456696 -26.456696l0 0c7.016754 0 13.746109 2.787384 18.707718 7.748993c4.9615784 4.9615784 7.7489624 11.6909485 7.7489624 18.707703l0 0c0 14.611633 -11.845047 26.456696 -26.45668 26.456696l0 0c-14.611633 0 -26.456696 -11.845062 -26.456696 -26.456696z" fill-rule="nonzero"></path><path fill="#ffffff" d="m90.1811 491.3176l181.16537 0l0 73.63779l-181.16537 0z" fill-rule="nonzero"></path><path stroke="#000000" stroke-width="2.0" stroke-linejoin="round" stroke-linecap="butt" d="m90.1811 491.3176l181.16537 0l0 73.63779l-181.16537 0z" fill-rule="nonzero"></path><path fill="#000000" fill-opacity="0.0" d="m90.1811 504.13647l181.16537 0l0 48.0l-181.16537 0z" fill-rule="nonzero"></path><path fill="#000000" d="m129.11655 531.05646l-1.2343826 -2.875l-5.5625 0l-1.234375 2.875l-3.15625 0l5.734375 -13.28125l2.875 0l5.7343826 13.28125l-3.15625 0zm-4.0000076 -9.328125l-1.671875 3.859375l3.3125 0l-1.640625 -3.859375zm14.102043 -1.0625q1.78125 0 3.171875 1.5q1.40625 1.484375 1.40625 3.75q0 2.25 -1.40625 3.78125q-1.390625 1.515625 -3.265625 1.515625q-1.859375 0 -3.0 -1.5l0 5.03125l-2.859375 0l0 -13.90625l2.859375 0l0 1.140625q1.3125 -1.3125 3.09375 -1.3125zm-3.140625 5.296875q0 1.234375 0.6875 2.03125q0.703125 0.78125 1.6875 0.78125q1.0 0 1.734375 -0.78125q0.734375 -0.796875 0.734375 -2.03125q0 -1.234375 -0.71875 -2.0625q-0.71875 -0.84375 -1.734375 -0.84375q-1.0 0 -1.703125 0.828125q-0.6875 0.828125 -0.6875 2.078125zm15.565689 -5.296875q1.78125 0 3.171875 1.5q1.40625 1.484375 1.40625 3.75q0 2.25 -1.40625 3.78125q-1.390625 1.515625 -3.265625 1.515625q-1.859375 0 -3.0 -1.5l0 5.03125l-2.859375 0l0 -13.90625l2.859375 0l0 1.140625q1.3125 -1.3125 3.09375 -1.3125zm-3.140625 5.296875q0 1.234375 0.6875 2.03125q0.703125 0.78125 1.6875 0.78125q1.0 0 1.734375 -0.78125q0.734375 -0.796875 0.734375 -2.03125q0 -1.234375 -0.71875 -2.0625q-0.71875 -0.84375 -1.734375 -0.84375q-1.0 0 -1.703125 0.828125q-0.6875 0.828125 -0.6875 2.078125zm12.471939 5.09375l-2.859375 0l0 -14.09375l2.859375 0l0 14.09375zm5.447632 0l-2.859375 0l0 -10.21875l2.859375 0l0 10.21875zm-2.609375 -11.515625q-0.484375 -0.5 -0.484375 -1.1875q0 -0.703125 0.484375 -1.1875q0.484375 -0.5 1.1875 -0.5q0.703125 0 1.1875 0.5q0.484375 0.484375 0.484375 1.1875q0 0.6875 -0.484375 1.1875q-0.484375 0.484375 -1.1875 0.484375q-0.703125 0 -1.1875 -0.484375zm10.103882 9.140625q1.421875 0 2.5625 -1.421875l1.6875 1.890625q-1.96875 2.0625 -4.265625 2.0625q-2.296875 0 -3.890625 -1.453125q-1.578125 -1.453125 -1.578125 -3.796875q0 -2.359375 1.59375 -3.828125q1.609375 -1.46875 3.8125 -1.46875q1.109375 0 2.234375 0.453125q1.125 0.453125 1.984375 1.34375l-1.484375 1.9375q-0.484375 -0.578125 -1.203125 -0.90625q-0.71875 -0.328125 -1.421875 -0.328125q-1.109375 0 -1.921875 0.734375q-0.8125 0.734375 -0.8125 2.046875q0 1.296875 0.8125 2.015625q0.8125 0.71875 1.890625 0.71875zm14.639191 2.375l-2.671875 0l0 -1.234375q-1.109375 1.390625 -2.734375 1.390625q-1.625 0 -2.734375 -0.9375q-1.09375 -0.953125 -1.09375 -2.515625q0 -1.5625 1.140625 -2.34375q1.140625 -0.78125 3.109375 -0.78125l2.140625 0l0 -0.0625q0 -1.625 -1.734375 -1.625q-0.734375 0 -1.5625 0.296875q-0.828125 0.28125 -1.40625 0.71875l-1.265625 -1.84375q2.015625 -1.453125 4.59375 -1.453125q1.859375 0 3.03125 0.9375q1.1875 0.921875 1.1875 2.9375l0 6.515625zm-2.875 -3.890625l0 -0.5l-1.78125 0q-1.703125 0 -1.703125 1.0625q0 0.546875 0.40625 0.84375q0.40625 0.296875 1.15625 0.296875q0.765625 0 1.34375 -0.453125q0.578125 -0.46875 0.578125 -1.25zm8.675568 -4.28125l0 4.578125q0 0.59375 0.296875 0.921875q0.3125 0.328125 0.734375 0.328125q0.796875 0 1.34375 -0.71875l1.0625 2.0q-1.328125 1.21875 -2.8125 1.21875q-1.46875 0 -2.484375 -0.96875q-1.015625 -0.96875 -1.015625 -2.640625l0 -4.71875l-1.1875 0l0 -2.046875l1.1875 0l0 -3.0625l2.875 0l0 3.0625l2.46875 0l0 2.046875l-2.46875 0zm7.6618805 8.171875l-2.859375 0l0 -10.21875l2.859375 0l0 10.21875zm-2.609375 -11.515625q-0.484375 -0.5 -0.484375 -1.1875q0 -0.703125 0.484375 -1.1875q0.484375 -0.5 1.1875 -0.5q0.703125 0 1.1875 0.5q0.484375 0.484375 0.484375 1.1875q0 0.6875 -0.484375 1.1875q-0.484375 0.484375 -1.1875 0.484375q-0.703125 0 -1.1875 -0.484375zm7.478882 6.40625q0 1.25 0.703125 2.046875q0.71875 0.78125 1.828125 0.78125q1.125 0 1.828125 -0.78125q0.71875 -0.796875 0.71875 -2.046875q0 -1.25 -0.71875 -2.046875q-0.703125 -0.8125 -1.828125 -0.8125q-1.109375 0 -1.828125 0.8125q-0.703125 0.796875 -0.703125 2.046875zm7.953125 0q0 2.21875 -1.546875 3.75q-1.53125 1.515625 -3.859375 1.515625q-2.328125 0 -3.875 -1.515625q-1.53125 -1.53125 -1.53125 -3.75q0 -2.21875 1.53125 -3.75q1.546875 -1.53125 3.875 -1.53125q2.328125 0 3.859375 1.53125q1.546875 1.53125 1.546875 3.75zm4.73291 -0.59375l0 5.703125l-2.859375 0l0 -10.21875l2.859375 0l0 1.140625q1.28125 -1.3125 2.890625 -1.3125q1.625 0 2.71875 1.140625q1.09375 1.140625 1.09375 3.03125l0 6.21875l-2.84375 0l0 -5.78125q0 -2.34375 -1.734375 -2.34375q-0.859375 0 -1.5 0.625q-0.625 0.609375 -0.625 1.796875zm17.643463 -0.484375q1.171875 -1.203125 1.671875 -1.90625q0.515625 -0.71875 0.515625 -1.375q0 -0.671875 -0.4375 -1.109375q-0.4375 -0.453125 -1.125 -0.453125q-1.25 0 -2.375 1.78125l-2.375 -1.40625q0.9375 -1.453125 2.046875 -2.1875q1.109375 -0.734375 2.828125 -0.734375q1.71875 0 3.015625 1.09375q1.296875 1.078125 1.296875 2.96875q0 1.015625 -0.515625 1.96875q-0.515625 0.9375 -1.921875 2.390625l-2.40625 2.5l5.25 0l0 2.65625l-9.359375 0l0 -2.203125l3.890625 -3.984375z" fill-rule="nonzero"></path><path fill="#ffffff" d="m721.4278 396.4239l0 0c0 6.4556274 20.93335 11.688965 46.75592 11.688965c25.82257 0 46.75592 -5.2333374 46.75592 -11.688965l0 79.48819c0 6.4556274 -20.93335 11.688965 -46.75592 11.688965c-25.82257 0 -46.75592 -5.2333374 -46.75592 -11.688965z" fill-rule="nonzero"></path><path fill="#ffffff" d="m721.4278 396.4239l0 0c0 -6.455658 20.93335 -11.688995 46.75592 -11.688995c25.82257 0 46.75592 5.2333374 46.75592 11.688995l0 0c0 6.4556274 -20.93335 11.688965 -46.75592 11.688965c-25.82257 0 -46.75592 -5.2333374 -46.75592 -11.688965z" fill-rule="nonzero"></path><path fill="#000000" fill-opacity="0.0" d="m814.93964 396.4239l0 0c0 6.4556274 -20.93335 11.688965 -46.75592 11.688965c-25.82257 0 -46.75592 -5.2333374 -46.75592 -11.688965l0 0c0 -6.455658 20.93335 -11.688995 46.75592 -11.688995c25.82257 0 46.75592 5.2333374 46.75592 11.688995l0 79.48819c0 6.4556274 -20.93335 11.688965 -46.75592 11.688965c-25.82257 0 -46.75592 -5.2333374 -46.75592 -11.688965l0 -79.48819" fill-rule="nonzero"></path><path stroke="#000000" stroke-width="2.0" stroke-linejoin="round" stroke-linecap="butt" d="m814.93964 396.4239l0 0c0 6.4556274 -20.93335 11.688965 -46.75592 11.688965c-25.82257 0 -46.75592 -5.2333374 -46.75592 -11.688965l0 0c0 -6.455658 20.93335 -11.688995 46.75592 -11.688995c25.82257 0 46.75592 5.2333374 46.75592 11.688995l0 79.48819c0 6.4556274 -20.93335 11.688965 -46.75592 11.688965c-25.82257 0 -46.75592 -5.2333374 -46.75592 -11.688965l0 -79.48819" fill-rule="nonzero"></path><path fill="#ffffff" d="m853.50397 387.66403l37.385803 0l0 105.84253l-18.692932 18.692902l-18.692871 0z" fill-rule="nonzero"></path><path fill="#cbcbcb" d="m872.19684 512.19946l3.7385864 -14.954315l14.954346 -3.7385864z" fill-rule="nonzero"></path><path fill="#000000" fill-opacity="0.0" d="m872.19684 512.19946l3.7385864 -14.954315l14.954346 -3.7385864l-18.692932 18.692902l-18.692871 0l0 -124.53543l37.385803 0l0 105.84253" fill-rule="nonzero"></path><path stroke="#000000" stroke-width="2.0" stroke-linejoin="round" stroke-linecap="butt" d="m872.19684 512.19946l3.7385864 -14.954315l14.954346 -3.7385864l-18.692932 18.692902l-18.692871 0l0 -124.53543l37.385803 0l0 105.84253" fill-rule="nonzero"></path><path fill="#ffffff" d="m622.5066 435.0971l0 0c0 -14.611633 11.845032 -26.456696 26.456665 -26.456696l0 0c7.0167236 0 13.746094 2.7874146 18.707703 7.748993c4.961609 4.961609 7.7489624 11.6909485 7.7489624 18.707703l0 0c0 14.611633 -11.845032 26.456696 -26.456665 26.456696l0 0c-14.611633 0 -26.456665 -11.845062 -26.456665 -26.456696z" fill-rule="nonzero"></path><path stroke="#000000" stroke-width="2.0" stroke-linejoin="round" stroke-linecap="butt" d="m622.5066 435.0971l0 0c0 -14.611633 11.845032 -26.456696 26.456665 -26.456696l0 0c7.0167236 0 13.746094 2.7874146 18.707703 7.748993c4.961609 4.961609 7.7489624 11.6909485 7.7489624 18.707703l0 0c0 14.611633 -11.845032 26.456696 -26.456665 26.456696l0 0c-14.611633 0 -26.456665 -11.845062 -26.456665 -26.456696z" fill-rule="nonzero"></path><path fill="#000000" fill-opacity="0.0" d="m671.8373 488.8084l192.69293 0l0 37.417297l-192.69293 0z" fill-rule="nonzero"></path><path fill="#000000" d="m701.8802 507.46527l2.515625 0l0 3.96875q-1.671875 1.859375 -4.609375 1.859375q-2.46875 0 -4.140625 -1.625q-1.671875 -1.640625 -1.671875 -4.125q0 -2.484375 1.703125 -4.140625q1.703125 -1.671875 4.109375 -1.671875q2.40625 0 4.1875 1.578125l-1.296875 1.875q-0.75 -0.65625 -1.390625 -0.90625q-0.625 -0.25 -1.359375 -0.25q-1.421875 0 -2.40625 0.96875q-0.96875 0.96875 -0.96875 2.5625q0 1.578125 0.9375 2.53125q0.9375 0.953125 2.234375 0.953125q1.296875 0 2.15625 -0.5l0 -3.078125zm9.015686 -0.796875q-1.0625 0 -1.59375 0.765625q-0.53125 0.765625 -0.53125 2.0l0 3.734375l-2.390625 0l0 -8.609375l2.390625 0l0 1.140625q0.46875 -0.53125 1.15625 -0.890625q0.703125 -0.375 1.421875 -0.390625l0.015625 2.25l-0.46875 0zm9.372864 6.5l-2.265625 0l0 -1.046875q-0.921875 1.171875 -2.296875 1.171875q-1.359375 0 -2.296875 -0.78125q-0.921875 -0.796875 -0.921875 -2.109375q0 -1.328125 0.953125 -1.984375q0.96875 -0.65625 2.625 -0.65625l1.796875 0l0 -0.046875q0 -1.375 -1.453125 -1.375q-0.625 0 -1.328125 0.25q-0.6875 0.234375 -1.171875 0.609375l-1.0625 -1.546875q1.6875 -1.234375 3.859375 -1.234375q1.578125 0 2.5625 0.78125q1.0 0.78125 1.0 2.484375l0 5.484375zm-2.421875 -3.28125l0 -0.421875l-1.5 0q-1.4375 0 -1.4375 0.90625q0 0.453125 0.34375 0.703125q0.34375 0.25 0.984375 0.25q0.640625 0 1.125 -0.390625q0.484375 -0.390625 0.484375 -1.046875zm9.613403 -5.46875q1.5 0 2.671875 1.265625q1.1875 1.25 1.1875 3.15625q0 1.890625 -1.1875 3.171875q-1.171875 1.28125 -2.75 1.28125q-1.5625 0 -2.53125 -1.265625l0 4.25l-2.390625 0l0 -11.71875l2.390625 0l0 0.96875q1.109375 -1.109375 2.609375 -1.109375zm-2.640625 4.453125q0 1.046875 0.578125 1.71875q0.59375 0.65625 1.421875 0.65625q0.84375 0 1.453125 -0.65625q0.625 -0.671875 0.625 -1.703125q0 -1.046875 -0.609375 -1.75q-0.59375 -0.703125 -1.453125 -0.703125q-0.84375 0 -1.4375 0.703125q-0.578125 0.6875 -0.578125 1.734375zm10.687256 -0.34375l0 4.640625l-2.390625 0l0 -11.875l2.390625 0l0 4.234375q1.09375 -1.109375 2.4375 -1.109375q1.359375 0 2.28125 0.96875q0.9375 0.953125 0.9375 2.546875l0 5.234375l-2.40625 0l0 -4.703125q0 -1.984375 -1.453125 -1.984375q-0.71875 0 -1.265625 0.53125q-0.53125 0.515625 -0.53125 1.515625zm10.22406 4.640625l-2.390625 0l0 -8.609375l2.390625 0l0 8.609375zm-2.203125 -9.703125q-0.40625 -0.40625 -0.40625 -1.0q0 -0.59375 0.40625 -1.0q0.421875 -0.40625 1.0 -0.40625q0.59375 0 1.0 0.40625q0.421875 0.40625 0.421875 1.0q0 0.59375 -0.421875 1.0q-0.40625 0.40625 -1.0 0.40625q-0.578125 0 -1.0 -0.40625zm7.343872 2.828125l0 3.84375q0 0.5 0.25 0.78125q0.265625 0.28125 0.609375 0.28125q0.671875 0 1.140625 -0.609375l0.890625 1.6875q-1.109375 1.015625 -2.359375 1.015625q-1.234375 0 -2.09375 -0.8125q-0.859375 -0.8125 -0.859375 -2.21875l0 -3.96875l-1.0 0l0 -1.734375l1.0 0l0 -2.578125l2.421875 0l0 2.578125l2.078125 0l0 1.734375l-2.078125 0zm11.633728 5.625q-1.453125 1.375 -3.421875 1.375q-1.953125 0 -3.234375 -1.203125q-1.28125 -1.203125 -1.28125 -3.234375q0 -2.046875 1.296875 -3.234375q1.3125 -1.203125 3.078125 -1.203125q1.78125 0 3.015625 1.078125q1.25 1.0625 1.25 2.9375l0 1.28125l-6.265625 0q0.109375 0.703125 0.734375 1.15625q0.625 0.4375 1.40625 0.4375q1.265625 0 2.078125 -0.84375l1.34375 1.453125zm-1.734375 -3.921875q-0.078125 -0.765625 -0.578125 -1.171875q-0.484375 -0.421875 -1.203125 -0.421875q-0.703125 0 -1.296875 0.4375q-0.59375 0.421875 -0.6875 1.15625l3.765625 0zm10.169312 -7.703125l2.265625 0l-6.71875 14.671875l-2.25 0l6.703125 -14.671875zm4.0583496 1.6875l2.5 0l0 11.1875l-2.5 0l0 -11.1875zm7.404297 6.390625l0 4.796875l-2.390625 0l0 -8.609375l2.390625 0l0 0.96875q1.09375 -1.109375 2.453125 -1.109375q1.359375 0 2.28125 0.96875q0.921875 0.953125 0.921875 2.546875l0 5.234375l-2.40625 0l0 -4.859375q0 -1.984375 -1.453125 -1.984375q-0.71875 0 -1.265625 0.515625q-0.53125 0.515625 -0.53125 1.53125zm10.692749 -4.3125l0 0.578125l2.078125 0l0 1.734375l-2.078125 0l0 6.796875l-2.421875 0l0 -6.796875l-1.0 0l0 -1.734375l1.0 0l0 -0.53125q0 -1.40625 0.859375 -2.21875q0.859375 -0.828125 2.125 -0.828125q1.28125 0 2.3125 0.953125l-0.859375 1.625q-0.53125 -0.609375 -1.171875 -0.609375q-0.359375 0 -0.609375 0.265625q-0.234375 0.265625 -0.234375 0.765625zm5.963257 9.109375l-2.390625 0l0 -11.875l2.390625 0l0 11.875zm7.828247 -3.96875l0 -4.640625l2.421875 0l0 8.609375l-2.421875 0l0 -1.140625q-0.890625 1.265625 -2.3125 1.265625q-1.421875 0 -2.375 -0.875q-0.953125 -0.890625 -0.953125 -2.640625l0 -5.21875l2.40625 0l0 4.6875q0 1.984375 1.453125 1.984375q0.71875 0 1.25 -0.515625q0.53125 -0.515625 0.53125 -1.515625zm6.7869263 -4.640625l1.46875 2.3125l1.515625 -2.3125l2.828125 0l-2.96875 4.203125l3.078125 4.40625l-2.875 0l-1.671875 -2.375l-1.640625 2.375l-2.765625 0l3.015625 -4.390625l-2.84375 -4.21875l2.859375 0zm11.453735 -2.578125q2.984375 0 4.578125 1.46875q1.609375 1.46875 1.609375 4.078125q0 2.59375 -1.5625 4.125q-1.546875 1.515625 -4.75 1.515625l-3.828125 0l0 -11.1875l3.953125 0zm0.125 8.984375q1.71875 0 2.640625 -0.859375q0.921875 -0.875 0.921875 -2.515625q0 -1.65625 -0.921875 -2.546875q-0.921875 -0.890625 -2.828125 -0.890625l-1.390625 0l0 6.8125l1.578125 0zm13.116577 2.203125l-4.890625 0l0 -11.1875l4.359375 0q1.125 0 1.953125 0.28125q0.828125 0.265625 1.234375 0.734375q0.765625 0.859375 0.765625 1.953125q0 1.3125 -0.859375 1.953125q-0.28125 0.21875 -0.40625 0.28125q-0.109375 0.046875 -0.390625 0.171875q1.046875 0.234375 1.65625 0.953125q0.609375 0.703125 0.609375 1.75q0 1.171875 -0.796875 2.0625q-0.921875 1.046875 -3.234375 1.046875zm-2.390625 -6.65625l1.1875 0q1.03125 0 1.53125 -0.21875q0.515625 -0.234375 0.515625 -0.96875q0 -0.75 -0.46875 -0.984375q-0.46875 -0.25 -1.5625 -0.25l-1.203125 0l0 2.421875zm0 4.546875l1.703125 0q1.078125 0 1.609375 -0.265625q0.546875 -0.265625 0.546875 -1.03125q0 -0.78125 -0.578125 -1.03125q-0.5625 -0.25 -1.8125 -0.25l-1.46875 0l0 2.578125z" fill-rule="nonzero"></path><path fill="#000000" fill-opacity="0.0" d="m888.0735 387.66403l0 110.86615l-48.0 0l0 -110.86615z" fill-rule="nonzero"></path><path fill="#000000" d="m869.4166 405.30466l0 2.515625l-3.96875 0q-1.859375 -1.671875 -1.859375 -4.609375q0 -2.46875 1.625 -4.140625q1.640625 -1.671875 4.125 -1.671875q2.484375 0 4.140625 1.703125q1.671875 1.703125 1.671875 4.109375q0 2.40625 -1.578125 4.1875l-1.875 -1.296875q0.65625 -0.75 0.90625 -1.390625q0.25 -0.625 0.25 -1.359375q0 -1.421875 -0.96875 -2.40625q-0.96875 -0.96875 -2.5625 -0.96875q-1.578125 0 -2.53125 0.9375q-0.953125 0.9375 -0.953125 2.234375q0 1.296875 0.5 2.15625l3.078125 0zm0.796875 9.0156555q0 -1.0625 -0.765625 -1.59375q-0.765625 -0.53125 -2.0 -0.53125l-3.734375 0l0 -2.390625l8.609375 0l0 2.390625l-1.140625 0q0.53125 0.46875 0.890625 1.15625q0.375 0.703125 0.390625 1.421875l-2.25 0.015625l0 -0.46875zm-6.5 9.372894l0 -2.265625l1.046875 0q-1.171875 -0.921875 -1.171875 -2.296875q0 -1.359375 0.78125 -2.296875q0.796875 -0.921875 2.109375 -0.921875q1.328125 0 1.984375 0.953125q0.65625 0.96875 0.65625 2.625l0 1.796875l0.046875 0q1.375 0 1.375 -1.453125q0 -0.625 -0.25 -1.328125q-0.234375 -0.6875 -0.609375 -1.171875l1.546875 -1.0625q1.234375 1.6875 1.234375 3.859375q0 1.578125 -0.78125 2.5625q-0.78125 1.0 -2.484375 1.0l-5.484375 0zm3.28125 -2.421875l0.421875 0l0 -1.5q0 -1.4375 -0.90625 -1.4375q-0.453125 0 -0.703125 0.34375q-0.25 0.34375 -0.25 0.984375q0 0.640625 0.390625 1.125q0.390625 0.484375 1.046875 0.484375zm5.46875 9.613403q0 1.5 -1.265625 2.671875q-1.25 1.1875 -3.15625 1.1875q-1.890625 0 -3.171875 -1.1875q-1.28125 -1.171875 -1.28125 -2.75q0 -1.5625 1.265625 -2.53125l-4.25 0l0 -2.390625l11.71875 0l0 2.390625l-0.96875 0q1.109375 1.109375 1.109375 2.609375zm-4.453125 -2.640625q-1.046875 0 -1.71875 0.578125q-0.65625 0.59375 -0.65625 1.421875q0 0.84375 0.65625 1.453125q0.671875 0.625 1.703125 0.625q1.046875 0 1.75 -0.609375q0.703125 -0.59375 0.703125 -1.453125q0 -0.84375 -0.703125 -1.4375q-0.6875 -0.578125 -1.734375 -0.578125zm0.34375 10.687256l-4.640625 0l0 -2.390625l11.875 0l0 2.390625l-4.234375 0q1.109375 1.09375 1.109375 2.4375q0 1.359375 -0.96875 2.28125q-0.953125 0.9375 -2.546875 0.9375l-5.234375 0l0 -2.40625l4.703125 0q1.984375 0 1.984375 -1.453125q0 -0.71875 -0.53125 -1.265625q-0.515625 -0.53125 -1.515625 -0.53125zm-4.640625 15.145905l0 -2.265625l1.046875 0q-1.171875 -0.921875 -1.171875 -2.296875q0 -1.359375 0.78125 -2.296875q0.796875 -0.921875 2.109375 -0.921875q1.328125 0 1.984375 0.953125q0.65625 0.96875 0.65625 2.625l0 1.796875l0.046875 0q1.375 0 1.375 -1.453125q0 -0.625 -0.25 -1.328125q-0.234375 -0.6875 -0.609375 -1.171875l1.546875 -1.0625q1.234375 1.6875 1.234375 3.859375q0 1.578125 -0.78125 2.5625q-0.78125 1.0 -2.484375 1.0l-5.484375 0zm3.28125 -2.421875l0.421875 0l0 -1.5q0 -1.4375 -0.90625 -1.4375q-0.453125 0 -0.703125 0.34375q-0.25 0.34375 -0.25 0.984375q0 0.640625 0.390625 1.125q0.390625 0.484375 1.046875 0.484375zm1.515625 7.003998l-4.796875 0l0 -2.390625l8.609375 0l0 2.390625l-0.96875 0q1.109375 1.09375 1.109375 2.453125q0 1.359375 -0.96875 2.28125q-0.953125 0.921875 -2.546875 0.921875l-5.234375 0l0 -2.40625l4.859375 0q1.984375 0 1.984375 -1.453125q0 -0.71875 -0.515625 -1.265625q-0.515625 -0.53125 -1.53125 -0.53125zm-4.796875 15.145905l0 -2.265625l1.046875 0q-1.171875 -0.921875 -1.171875 -2.296875q0 -1.359375 0.78125 -2.296875q0.796875 -0.921875 2.109375 -0.921875q1.328125 0 1.984375 0.953125q0.65625 0.96875 0.65625 2.625l0 1.796875l0.046875 0q1.375 0 1.375 -1.453125q0 -0.625 -0.25 -1.328125q-0.234375 -0.6875 -0.609375 -1.171875l1.546875 -1.0625q1.234375 1.6875 1.234375 3.859375q0 1.578125 -0.78125 2.5625q-0.78125 1.0 -2.484375 1.0l-5.484375 0zm3.28125 -2.421875l0.421875 0l0 -1.5q0 -1.4375 -0.90625 -1.4375q-0.453125 0 -0.703125 0.34375q-0.25 0.34375 -0.25 0.984375q0 0.640625 0.390625 1.125q0.390625 0.484375 1.046875 0.484375z" fill-rule="nonzero"></path><path fill="#000000" fill-opacity="0.0" d="m127.3937 177.77428l0.40944672 37.606308" fill-rule="nonzero"></path><path stroke="#000000" stroke-width="2.0" stroke-linejoin="round" stroke-linecap="butt" d="m127.3937 177.77428l0.27880096 25.607025" fill-rule="evenodd"></path><path fill="#000000" stroke="#000000" stroke-width="2.0" stroke-linecap="butt" d="m124.36923 203.41725l3.4020844 9.039688l3.2044525 -9.111618z" fill-rule="evenodd"></path><path fill="#000000" fill-opacity="0.0" d="m149.4252 239.16011l64.913376 0" fill-rule="nonzero"></path><path stroke="#000000" stroke-width="2.0" stroke-linejoin="round" stroke-linecap="butt" d="m149.4252 239.16011l52.913376 0" fill-rule="evenodd"></path><path fill="#000000" stroke="#000000" stroke-width="2.0" stroke-linecap="butt" d="m202.33858 242.46358l9.076202 -3.3034668l-9.076202 -3.3034668z" fill-rule="evenodd"></path><path fill="#000000" fill-opacity="0.0" d="m259.4925 257.8678l153.66928 61.480316" fill-rule="nonzero"></path><path stroke="#000000" stroke-width="2.0" stroke-linejoin="round" stroke-linecap="butt" d="m259.49246 257.8678l142.52792 57.022858" fill-rule="evenodd"></path><path fill="#000000" stroke="#000000" stroke-width="2.0" stroke-linecap="butt" d="m400.79327 317.95773l9.6539 0.3043213l-7.199707 -6.438507z" fill-rule="evenodd"></path><path fill="#000000" fill-opacity="0.0" d="m149.4252 427.51706l64.913376 0" fill-rule="nonzero"></path><path stroke="#000000" stroke-width="2.0" stroke-linejoin="round" stroke-linecap="butt" d="m149.4252 427.51706l52.913376 0" fill-rule="evenodd"></path><path fill="#000000" stroke="#000000" stroke-width="2.0" stroke-linecap="butt" d="m202.33858 430.82053l9.076202 -3.3034668l-9.076202 -3.3034668z" fill-rule="evenodd"></path><path fill="#000000" fill-opacity="0.0" d="m530.62994 322.24673l99.62201 -94.20474" fill-rule="nonzero"></path><path stroke="#000000" stroke-width="2.0" stroke-linejoin="round" stroke-linecap="butt" d="m530.62994 322.2467l90.903015 -85.95981" fill-rule="evenodd"></path><path fill="#000000" stroke="#000000" stroke-width="2.0" stroke-linecap="butt" d="m623.8027 238.68715l4.32489 -8.636276l-8.86438 3.8357697z" fill-rule="evenodd"></path><path fill="#000000" fill-opacity="0.0" d="m530.62994 322.24673l99.62201 94.14172" fill-rule="nonzero"></path><path stroke="#000000" stroke-width="2.0" stroke-linejoin="round" stroke-linecap="butt" d="m530.62994 322.2467l90.90027 85.89975" fill-rule="evenodd"></path><path fill="#000000" stroke="#000000" stroke-width="2.0" stroke-linecap="butt" d="m619.2612 410.54745l8.865662 3.8328247l-4.327759 -8.634827z" fill-rule="evenodd"></path><path fill="#000000" fill-opacity="0.0" d="m675.4199 209.32283l46.015747 1.0708771" fill-rule="nonzero"></path><path stroke="#000000" stroke-width="2.0" stroke-linejoin="round" stroke-linecap="butt" d="m675.4199 209.32283l34.019043 0.791687" fill-rule="evenodd"></path><path fill="#000000" stroke="#000000" stroke-width="2.0" stroke-linecap="butt" d="m709.36206 213.41708l9.150635 -3.0914001l-8.996887 -3.513733z" fill-rule="evenodd"></path><path fill="#000000" fill-opacity="0.0" d="m675.4199 435.0971l46.015747 1.0708618" fill-rule="nonzero"></path><path stroke="#000000" stroke-width="2.0" stroke-linejoin="round" stroke-linecap="butt" d="m675.4199 435.0971l34.019043 0.791687" fill-rule="evenodd"></path><path fill="#000000" stroke="#000000" stroke-width="2.0" stroke-linecap="butt" d="m709.36206 439.19138l9.150635 -3.0914307l-8.996887 -3.513733z" fill-rule="evenodd"></path><path fill="#000000" fill-opacity="0.0" d="m222.07707 257.8678l-73.03937 -0.5354309" fill-rule="nonzero"></path><path stroke="#000000" stroke-width="2.0" stroke-linejoin="round" stroke-linecap="butt" d="m222.07707 257.8678l-61.03969 -0.44744873" fill-rule="evenodd"></path><path fill="#000000" stroke="#000000" stroke-width="2.0" stroke-linecap="butt" d="m161.0616 254.11696l-9.100174 3.2368317l9.051727 3.369934z" fill-rule="evenodd"></path><path fill="#000000" fill-opacity="0.0" d="m222.07707 446.22476l-71.84253 -0.09448242" fill-rule="nonzero"></path><path stroke="#000000" stroke-width="2.0" stroke-linejoin="round" stroke-linecap="butt" d="m222.07707 446.2248l-59.84253 -0.078704834" fill-rule="evenodd"></path><path fill="#000000" stroke="#000000" stroke-width="2.0" stroke-linecap="butt" d="m162.23888 442.84262l-9.080521 3.291504l9.071838 3.3153992z" fill-rule="evenodd"></path><path fill="#000000" fill-opacity="0.0" d="m622.5066 209.32283l-93.03943 88.72441" fill-rule="nonzero"></path><path stroke="#000000" stroke-width="2.0" stroke-linejoin="round" stroke-linecap="butt" d="m622.5066 209.32283l-84.35516 80.44289" fill-rule="evenodd"></path><path fill="#000000" stroke="#000000" stroke-width="2.0" stroke-linecap="butt" d="m535.87164 287.37506l-4.288513 8.654388l8.848145 -3.8730469z" fill-rule="evenodd"></path><path fill="#000000" fill-opacity="0.0" d="m622.5066 435.0971l-93.03943 -84.44095" fill-rule="nonzero"></path><path stroke="#000000" stroke-width="2.0" stroke-linejoin="round" stroke-linecap="butt" d="m622.5066 435.0971l-84.15344 -76.37622" fill-rule="evenodd"></path><path fill="#000000" stroke="#000000" stroke-width="2.0" stroke-linecap="butt" d="m540.57324 356.2747l-8.940979 -3.653534l4.5007324 8.545959z" fill-rule="evenodd"></path><path fill="#000000" fill-opacity="0.0" d="m259.4925 408.80936l153.98425 -83.77954" fill-rule="nonzero"></path><path stroke="#000000" stroke-width="2.0" stroke-linejoin="round" stroke-linecap="butt" d="m259.49246 408.80936l143.44345 -78.044464" fill-rule="evenodd"></path><path fill="#000000" stroke="#000000" stroke-width="2.0" stroke-linecap="butt" d="m404.5147 333.66666l6.3937683 -7.2394714l-9.551361 1.4359131z" fill-rule="evenodd"></path><path fill="#000000" fill-opacity="0.0" d="m126.732285 491.0761l1.0708618 -39.77951" fill-rule="nonzero"></path><path stroke="#000000" stroke-width="2.0" stroke-linejoin="round" stroke-linecap="butt" d="m126.732285 491.0761l0.74794006 -27.783875" fill-rule="evenodd"></path><path fill="#000000" stroke="#000000" stroke-width="2.0" stroke-linecap="butt" d="m130.7825 463.38113l-3.0580292 -9.161804l-3.5465164 8.984009z" fill-rule="evenodd"></path><path fill="#000000" fill-opacity="0.0" d="m415.74542 296.26248l-148.50394 -57.10237" fill-rule="nonzero"></path><path stroke="#000000" stroke-width="2.0" stroke-linejoin="round" stroke-linecap="butt" d="m415.7454 296.26248l-137.3034 -52.795578" fill-rule="evenodd"></path><path fill="#000000" stroke="#000000" stroke-width="2.0" stroke-linecap="butt" d="m279.6276 240.38353l-9.6571045 -0.17407227l7.2858887 6.3408203z" fill-rule="evenodd"></path><path fill="#000000" fill-opacity="0.0" d="m414.8005 346.16272l-147.55905 81.35434" fill-rule="nonzero"></path><path stroke="#000000" stroke-width="2.0" stroke-linejoin="round" stroke-linecap="butt" d="m414.80054 346.16272l-137.05038 75.56055" fill-rule="evenodd"></path><path fill="#000000" stroke="#000000" stroke-width="2.0" stroke-linecap="butt" d="m276.15518 418.83035l-6.3532715 7.275055l9.543182 -1.4892273z" fill-rule="evenodd"></path><path fill="#000000" fill-opacity="0.0" d="m814.93964 210.39369l37.700806 0.0315094" fill-rule="nonzero"></path><path stroke="#000000" stroke-width="2.0" stroke-linejoin="round" stroke-linecap="butt" d="m814.93964 210.3937l25.700806 0.021469116" fill-rule="evenodd"></path><path fill="#000000" stroke="#000000" stroke-width="2.0" stroke-linecap="butt" d="m840.6377 213.71863l9.078918 -3.295868l-9.073425 -3.3110504z" fill-rule="evenodd"></path><path fill="#000000" fill-opacity="0.0" d="m814.93964 436.16797l39.55902 1.3228455" fill-rule="nonzero"></path><path stroke="#000000" stroke-width="2.0" stroke-linejoin="round" stroke-linecap="butt" d="m814.93964 436.16797l27.565796 0.92181396" fill-rule="evenodd"></path><path fill="#000000" stroke="#000000" stroke-width="2.0" stroke-linecap="butt" d="m842.39496 440.3914l9.18158 -2.998291l-8.960754 -3.60495z" fill-rule="evenodd"></path></g></svg>

