<?xml version="1.0" standalone="yes"?>

<svg version="1.1" viewBox="0.0 0.0 960.0 720.0" fill="none" stroke="none" stroke-linecap="square" stroke-miterlimit="10" xmlns="http://www.w3.org/2000/svg" xmlns:xlink="http://www.w3.org/1999/xlink"><clipPath id="p.0"><path d="m0 0l960.0 0l0 720.0l-960.0 0l0 -720.0z" clip-rule="nonzero"></path></clipPath><g clip-path="url(#p.0)"><path fill="#000000" fill-opacity="0.0" d="m0 0l960.0 0l0 720.0l-960.0 0z" fill-rule="nonzero"></path><path fill="#ffffff" d="m425.73358 365.22833l0 0c5.6228943 0 10.181122 -18.23291 10.181122 -40.724396c0 -22.491455 -4.5582275 -40.724396 -10.181122 -40.724396l96.897644 0c5.622864 0 10.181091 18.23294 10.181091 40.724396c0 22.491486 -4.5582275 40.724396 -10.181091 40.724396z" fill-rule="nonzero"></path><path fill="#ffffff" d="m425.73358 365.22833l0 0c-5.622864 0 -10.181091 -18.23291 -10.181091 -40.724396c0 -22.491455 4.5582275 -40.724396 10.181091 -40.724396l0 0c5.6228943 0 10.181122 18.23294 10.181122 40.724396c0 22.491486 -4.5582275 40.724396 -10.181122 40.724396z" fill-rule="nonzero"></path><path fill="#000000" fill-opacity="0.0" d="m425.73358 283.77954l0 0c5.6228943 0 10.181122 18.23294 10.181122 40.724396c0 22.491486 -4.5582275 40.724396 -10.181122 40.724396l0 0c-5.622864 0 -10.181091 -18.23291 -10.181091 -40.724396c0 -22.491455 4.5582275 -40.724396 10.181091 -40.724396l96.897644 0c5.622864 0 10.181091 18.23294 10.181091 40.724396c0 22.491486 -4.5582275 40.724396 -10.181091 40.724396l-96.897644 0" fill-rule="nonzero"></path><path stroke="#000000" stroke-width="2.0" stroke-linejoin="round" stroke-linecap="butt" d="m425.73358 283.77954l0 0c5.6228943 0 10.181122 18.23294 10.181122 40.724396c0 22.491486 -4.5582275 40.724396 -10.181122 40.724396l0 0c-5.622864 0 -10.181091 -18.23291 -10.181091 -40.724396c0 -22.491455 4.5582275 -40.724396 10.181091 -40.724396l96.897644 0c5.622864 0 10.181091 18.23294 10.181091 40.724396c0 22.491486 -4.5582275 40.724396 -10.181091 40.724396l-96.897644 0" fill-rule="nonzero"></path><path fill="#000000" fill-opacity="0.0" d="m388.27692 365.5748l171.81104 0l0 37.417328l-171.81104 0z" fill-rule="nonzero"></path><path fill="#000000" d="m420.7889 382.88794l-3.015625 6.125l-1.5 0l-3.0 -6.125l0 7.046875l-2.5 0l0 -11.1875l3.375 0l2.875 6.140625l2.90625 -6.140625l3.359375 0l0 11.1875l-2.5 0l0 -7.046875zm12.467163 5.796875q-1.453125 1.375 -3.421875 1.375q-1.953125 0 -3.234375 -1.203125q-1.28125 -1.203125 -1.28125 -3.234375q0 -2.046875 1.296875 -3.234375q1.3125 -1.203125 3.078125 -1.203125q1.78125 0 3.015625 1.078125q1.25 1.0625 1.25 2.9375l0 1.28125l-6.265625 0q0.109375 0.703125 0.734375 1.15625q0.625 0.4375 1.40625 0.4375q1.265625 0 2.078125 -0.84375l1.34375 1.453125zm-1.734375 -3.921875q-0.078125 -0.765625 -0.578125 -1.171875q-0.484375 -0.421875 -1.203125 -0.421875q-0.703125 0 -1.296875 0.4375q-0.59375 0.421875 -0.6875 1.15625l3.765625 0zm10.6380005 2.5q0 1.265625 -0.9375 2.03125q-0.921875 0.765625 -2.375 0.765625q-0.953125 0 -2.0 -0.34375q-1.03125 -0.34375 -1.859375 -1.015625l1.046875 -1.5q1.34375 1.03125 2.875 1.03125q0.453125 0 0.71875 -0.171875q0.28125 -0.1875 0.28125 -0.484375q0 -0.3125 -0.375 -0.5625q-0.375 -0.265625 -1.09375 -0.484375q-0.703125 -0.21875 -1.078125 -0.375q-0.375 -0.171875 -0.859375 -0.46875q-0.984375 -0.609375 -0.984375 -1.796875q0 -1.203125 0.953125 -1.953125q0.96875 -0.75 2.484375 -0.75q1.53125 0 3.046875 1.015625l-0.890625 1.609375q-1.125 -0.765625 -2.234375 -0.765625q-1.109375 0 -1.109375 0.609375q0 0.328125 0.34375 0.53125q0.359375 0.1875 1.171875 0.4375q0.8125 0.25 1.15625 0.390625q0.34375 0.140625 0.828125 0.421875q0.890625 0.546875 0.890625 1.828125zm8.320038 0q0 1.265625 -0.9375 2.03125q-0.921875 0.765625 -2.375 0.765625q-0.953125 0 -2.0 -0.34375q-1.03125 -0.34375 -1.859375 -1.015625l1.046875 -1.5q1.34375 1.03125 2.875 1.03125q0.453125 0 0.71875 -0.171875q0.28125 -0.1875 0.28125 -0.484375q0 -0.3125 -0.375 -0.5625q-0.375 -0.265625 -1.09375 -0.484375q-0.703125 -0.21875 -1.078125 -0.375q-0.375 -0.171875 -0.859375 -0.46875q-0.984375 -0.609375 -0.984375 -1.796875q0 -1.203125 0.953125 -1.953125q0.96875 -0.75 2.484375 -0.75q1.53125 0 3.046875 1.015625l-0.890625 1.609375q-1.125 -0.765625 -2.234375 -0.765625q-1.109375 0 -1.109375 0.609375q0 0.328125 0.34375 0.53125q0.359375 0.1875 1.171875 0.4375q0.8125 0.25 1.15625 0.390625q0.34375 0.140625 0.828125 0.421875q0.890625 0.546875 0.890625 1.828125zm9.163757 2.671875l-2.265625 0l0 -1.046875q-0.921875 1.171875 -2.296875 1.171875q-1.359375 0 -2.296875 -0.78125q-0.921875 -0.796875 -0.921875 -2.109375q0 -1.328125 0.953125 -1.984375q0.96875 -0.65625 2.625 -0.65625l1.796875 0l0 -0.046875q0 -1.375 -1.453125 -1.375q-0.625 0 -1.328125 0.25q-0.6875 0.234375 -1.171875 0.609375l-1.0625 -1.546875q1.6875 -1.234375 3.859375 -1.234375q1.578125 0 2.5625 0.78125q1.0 0.78125 1.0 2.484375l0 5.484375zm-2.421875 -3.28125l0 -0.421875l-1.5 0q-1.4375 0 -1.4375 0.90625q0 0.453125 0.34375 0.703125q0.34375 0.25 0.984375 0.25q0.640625 0 1.125 -0.390625q0.484375 -0.390625 0.484375 -1.046875zm10.644653 -1.203125q0 -1.03125 -0.578125 -1.625q-0.578125 -0.59375 -1.4375 -0.59375q-0.84375 0 -1.453125 0.59375q-0.609375 0.59375 -0.609375 1.625q0 1.015625 0.59375 1.65625q0.59375 0.625 1.453125 0.625q0.875 0 1.453125 -0.625q0.578125 -0.625 0.578125 -1.65625zm0.328125 3.03125q-1.125 1.265625 -2.828125 1.265625q-1.6875 0 -2.84375 -1.140625q-1.15625 -1.15625 -1.15625 -3.0625q0 -1.90625 1.1875 -3.125q1.203125 -1.234375 2.734375 -1.234375q1.53125 0 2.546875 1.265625l0 -1.140625l2.390625 0l0 7.5q0 1.15625 -0.40625 2.046875q-0.390625 0.90625 -1.0625 1.421875q-1.328125 1.046875 -3.140625 1.046875q-0.953125 0 -1.953125 -0.3125q-1.0 -0.3125 -1.75 -0.890625l0.921875 -1.796875q1.1875 0.890625 2.5 0.890625q1.328125 0 2.09375 -0.65625q0.765625 -0.65625 0.765625 -2.078125zm11.765778 0.203125q-1.453125 1.375 -3.421875 1.375q-1.953125 0 -3.234375 -1.203125q-1.28125 -1.203125 -1.28125 -3.234375q0 -2.046875 1.296875 -3.234375q1.3125 -1.203125 3.078125 -1.203125q1.78125 0 3.015625 1.078125q1.25 1.0625 1.25 2.9375l0 1.28125l-6.265625 0q0.109375 0.703125 0.734375 1.15625q0.625 0.4375 1.40625 0.4375q1.265625 0 2.078125 -0.84375l1.34375 1.453125zm-1.734375 -3.921875q-0.078125 -0.765625 -0.578125 -1.171875q-0.484375 -0.421875 -1.203125 -0.421875q-0.703125 0 -1.296875 0.4375q-0.59375 0.421875 -0.6875 1.15625l3.765625 0zm19.73703 -0.484375q0 1.734375 -0.890625 3.125q-0.890625 1.390625 -2.390625 2.078125q0.140625 0.25 0.453125 0.421875q0.3125 0.15625 0.640625 0.15625q0.34375 0 0.65625 -0.109375q0.328125 -0.09375 0.515625 -0.234375q0.421875 -0.34375 0.59375 -0.65625l1.296875 1.546875q-1.375 1.453125 -3.4375 1.453125q-0.96875 0 -1.890625 -0.53125q-0.921875 -0.515625 -1.421875 -1.484375q-2.484375 0 -4.1875 -1.65625q-1.6875 -1.65625 -1.6875 -4.109375q0 -2.46875 1.6875 -4.125q1.703125 -1.65625 4.1875 -1.65625q2.484375 0 4.171875 1.65625q1.703125 1.65625 1.703125 4.125zm-2.546875 0q0 -1.5 -0.96875 -2.546875q-0.953125 -1.0625 -2.359375 -1.0625q-1.390625 0 -2.359375 1.0625q-0.953125 1.046875 -0.953125 2.546875q0 1.5 0.953125 2.546875q0.96875 1.046875 2.359375 1.046875q1.40625 0 2.359375 -1.046875q0.96875 -1.046875 0.96875 -2.546875zm9.982025 1.6875l0 -4.640625l2.421875 0l0 8.609375l-2.421875 0l0 -1.140625q-0.890625 1.265625 -2.3125 1.265625q-1.421875 0 -2.375 -0.875q-0.953125 -0.890625 -0.953125 -2.640625l0 -5.21875l2.40625 0l0 4.6875q0 1.984375 1.453125 1.984375q0.71875 0 1.25 -0.515625q0.53125 -0.515625 0.53125 -1.515625zm12.146271 2.71875q-1.453125 1.375 -3.421875 1.375q-1.953125 0 -3.234375 -1.203125q-1.28125 -1.203125 -1.28125 -3.234375q0 -2.046875 1.296875 -3.234375q1.3125 -1.203125 3.078125 -1.203125q1.78125 0 3.015625 1.078125q1.25 1.0625 1.25 2.9375l0 1.28125l-6.265625 0q0.109375 0.703125 0.734375 1.15625q0.625 0.4375 1.40625 0.4375q1.265625 0 2.078125 -0.84375l1.34375 1.453125zm-1.734375 -3.921875q-0.078125 -0.765625 -0.578125 -1.171875q-0.484375 -0.421875 -1.203125 -0.421875q-0.703125 0 -1.296875 0.4375q-0.59375 0.421875 -0.6875 1.15625l3.765625 0zm9.7161255 1.203125l0 -4.640625l2.421875 0l0 8.609375l-2.421875 0l0 -1.140625q-0.890625 1.265625 -2.3125 1.265625q-1.421875 0 -2.375 -0.875q-0.953125 -0.890625 -0.953125 -2.640625l0 -5.21875l2.40625 0l0 4.6875q0 1.984375 1.453125 1.984375q0.71875 0 1.25 -0.515625q0.53125 -0.515625 0.53125 -1.515625zm12.146301 2.71875q-1.453125 1.375 -3.421875 1.375q-1.953125 0 -3.234375 -1.203125q-1.28125 -1.203125 -1.28125 -3.234375q0 -2.046875 1.296875 -3.234375q1.3125 -1.203125 3.078125 -1.203125q1.78125 0 3.015625 1.078125q1.25 1.0625 1.25 2.9375l0 1.28125l-6.265625 0q0.109375 0.703125 0.734375 1.15625q0.625 0.4375 1.40625 0.4375q1.265625 0 2.078125 -0.84375l1.34375 1.453125zm-1.734375 -3.921875q-0.078125 -0.765625 -0.578125 -1.171875q-0.484375 -0.421875 -1.203125 -0.421875q-0.703125 0 -1.296875 0.4375q-0.59375 0.421875 -0.6875 1.15625l3.765625 0z" fill-rule="nonzero"></path><path fill="#ffffff" d="m620.90814 306.3937l0 0c0 -14.611633 11.845032 -26.456696 26.456665 -26.456696l0 0c7.0167847 0 13.746155 2.787384 18.707703 7.748993c4.961609 4.9615784 7.7490234 11.6909485 7.7490234 18.707703l0 0c0 14.611633 -11.845093 26.456696 -26.456726 26.456696l0 0c-14.611633 0 -26.456665 -11.845062 -26.456665 -26.456696z" fill-rule="nonzero"></path><path stroke="#000000" stroke-width="2.0" stroke-linejoin="round" stroke-linecap="butt" d="m620.90814 306.3937l0 0c0 -14.611633 11.845032 -26.456696 26.456665 -26.456696l0 0c7.0167847 0 13.746155 2.787384 18.707703 7.748993c4.961609 4.9615784 7.7490234 11.6909485 7.7490234 18.707703l0 0c0 14.611633 -11.845093 26.456696 -26.456726 26.456696l0 0c-14.611633 0 -26.456665 -11.845062 -26.456665 -26.456696z" fill-rule="nonzero"></path><path fill="#000000" fill-opacity="0.0" d="m673.82153 306.3937l46.015747 1.0708618" fill-rule="nonzero"></path><path stroke="#000000" stroke-width="2.0" stroke-linejoin="round" stroke-linecap="butt" d="m673.82153 306.3937l34.019043 0.791687" fill-rule="evenodd"></path><path fill="#000000" stroke="#000000" stroke-width="2.0" stroke-linecap="butt" d="m707.7637 310.48795l9.150574 -3.0914001l-8.996887 -3.513733z" fill-rule="evenodd"></path><path fill="#ffffff" d="m721.4278 266.6496l0 0c0 6.455658 20.93335 11.688995 46.75592 11.688995c25.82257 0 46.75592 -5.2333374 46.75592 -11.688995l0 79.48819c0 6.455658 -20.93335 11.688995 -46.75592 11.688995c-25.82257 0 -46.75592 -5.2333374 -46.75592 -11.688995z" fill-rule="nonzero"></path><path fill="#ffffff" d="m721.4278 266.6496l0 0c0 -6.4556274 20.93335 -11.688965 46.75592 -11.688965c25.82257 0 46.75592 5.2333374 46.75592 11.688965l0 0c0 6.455658 -20.93335 11.688995 -46.75592 11.688995c-25.82257 0 -46.75592 -5.2333374 -46.75592 -11.688995z" fill-rule="nonzero"></path><path fill="#000000" fill-opacity="0.0" d="m814.93964 266.6496l0 0c0 6.455658 -20.93335 11.688995 -46.75592 11.688995c-25.82257 0 -46.75592 -5.2333374 -46.75592 -11.688995l0 0c0 -6.4556274 20.93335 -11.688965 46.75592 -11.688965c25.82257 0 46.75592 5.2333374 46.75592 11.688965l0 79.48819c0 6.455658 -20.93335 11.688995 -46.75592 11.688995c-25.82257 0 -46.75592 -5.2333374 -46.75592 -11.688995l0 -79.48819" fill-rule="nonzero"></path><path stroke="#000000" stroke-width="2.0" stroke-linejoin="round" stroke-linecap="butt" d="m814.93964 266.6496l0 0c0 6.455658 -20.93335 11.688995 -46.75592 11.688995c-25.82257 0 -46.75592 -5.2333374 -46.75592 -11.688995l0 0c0 -6.4556274 20.93335 -11.688965 46.75592 -11.688965c25.82257 0 46.75592 5.2333374 46.75592 11.688965l0 79.48819c0 6.455658 -20.93335 11.688995 -46.75592 11.688995c-25.82257 0 -46.75592 -5.2333374 -46.75592 -11.688995l0 -79.48819" fill-rule="nonzero"></path><path fill="#ffffff" d="m853.50397 257.88977l37.385803 0l0 105.8425l-18.692932 18.692932l-18.692871 0z" fill-rule="nonzero"></path><path fill="#cbcbcb" d="m872.19684 382.4252l3.7385864 -14.954346l14.954346 -3.7385864z" fill-rule="nonzero"></path><path fill="#000000" fill-opacity="0.0" d="m872.19684 382.4252l3.7385864 -14.954346l14.954346 -3.7385864l-18.692932 18.692932l-18.692871 0l0 -124.53543l37.385803 0l0 105.8425" fill-rule="nonzero"></path><path stroke="#000000" stroke-width="2.0" stroke-linejoin="round" stroke-linecap="butt" d="m872.19684 382.4252l3.7385864 -14.954346l14.954346 -3.7385864l-18.692932 18.692932l-18.692871 0l0 -124.53543l37.385803 0l0 105.8425" fill-rule="nonzero"></path><path fill="#ffffff" d="m106.1811 388.7861l0 0c0 2.985382 9.680527 5.405487 21.622047 5.405487c11.941528 0 21.622055 -2.420105 21.622055 -5.405487l0 36.748016c0 2.985382 -9.680527 5.4055176 -21.622055 5.4055176c-11.941521 0 -21.622047 -2.4201355 -21.622047 -5.4055176z" fill-rule="nonzero"></path><path fill="#ffffff" d="m106.1811 388.7861l0 0c0 -2.985382 9.680527 -5.4055176 21.622047 -5.4055176c11.941528 0 21.622055 2.4201355 21.622055 5.4055176l0 0c0 2.985382 -9.680527 5.405487 -21.622055 5.405487c-11.941521 0 -21.622047 -2.420105 -21.622047 -5.405487z" fill-rule="nonzero"></path><path fill="#000000" fill-opacity="0.0" d="m149.4252 388.7861l0 0c0 2.985382 -9.680527 5.405487 -21.622055 5.405487c-11.941521 0 -21.622047 -2.420105 -21.622047 -5.405487l0 0c0 -2.985382 9.680527 -5.4055176 21.622047 -5.4055176c11.941528 0 21.622055 2.4201355 21.622055 5.4055176l0 36.748016c0 2.985382 -9.680527 5.4055176 -21.622055 5.4055176c-11.941521 0 -21.622047 -2.4201355 -21.622047 -5.4055176l0 -36.748016" fill-rule="nonzero"></path><path stroke="#000000" stroke-width="2.0" stroke-linejoin="round" stroke-linecap="butt" d="m149.4252 388.7861l0 0c0 2.985382 -9.680527 5.405487 -21.622055 5.405487c-11.941521 0 -21.622047 -2.420105 -21.622047 -5.405487l0 0c0 -2.985382 9.680527 -5.4055176 21.622047 -5.4055176c11.941528 0 21.622055 2.4201355 21.622055 5.4055176l0 36.748016c0 2.985382 -9.680527 5.4055176 -21.622055 5.4055176c-11.941521 0 -21.622047 -2.4201355 -21.622047 -5.4055176l0 -36.748016" fill-rule="nonzero"></path><path fill="#ffffff" d="m271.34647 407.1601l0 0c0 -14.611633 11.845062 -26.456696 26.456696 -26.456696l0 0c7.016754 0 13.746094 2.7874146 18.707703 7.748993c4.9615784 4.961609 7.748993 11.6909485 7.748993 18.707703l0 0c0 14.611633 -11.845093 26.456696 -26.456696 26.456696l0 0c-14.611633 0 -26.456696 -11.845062 -26.456696 -26.456696z" fill-rule="nonzero"></path><path stroke="#000000" stroke-width="2.0" stroke-linejoin="round" stroke-linecap="butt" d="m271.34647 407.1601l0 0c0 -14.611633 11.845062 -26.456696 26.456696 -26.456696l0 0c7.016754 0 13.746094 2.7874146 18.707703 7.748993c4.9615784 4.961609 7.748993 11.6909485 7.748993 18.707703l0 0c0 14.611633 -11.845093 26.456696 -26.456696 26.456696l0 0c-14.611633 0 -26.456696 -11.845062 -26.456696 -26.456696z" fill-rule="nonzero"></path><path fill="#ffffff" d="m90.1811 270.96063l181.16537 0l0 73.63779l-181.16537 0z" fill-rule="nonzero"></path><path stroke="#000000" stroke-width="2.0" stroke-linejoin="round" stroke-linecap="butt" d="m90.1811 270.96063l181.16537 0l0 73.63779l-181.16537 0z" fill-rule="nonzero"></path><path fill="#000000" fill-opacity="0.0" d="m90.1811 283.77954l181.16537 0l0 48.0l-181.16537 0z" fill-rule="nonzero"></path><path fill="#000000" d="m131.00082 310.69952l-1.234375 -2.875l-5.5625 0l-1.234375 2.875l-3.15625 0l5.734375 -13.28125l2.875 0l5.734375 13.28125l-3.15625 0zm-4.0 -9.328125l-1.671875 3.859375l3.3125 0l-1.640625 -3.859375zm14.1020355 -1.0625q1.78125 0 3.171875 1.5q1.40625 1.484375 1.40625 3.75q0 2.25 -1.40625 3.78125q-1.390625 1.515625 -3.265625 1.515625q-1.859375 0 -3.0 -1.5l0 5.03125l-2.859375 0l0 -13.90625l2.859375 0l0 1.140625q1.3125 -1.3125 3.09375 -1.3125zm-3.140625 5.296875q0 1.234375 0.6875 2.03125q0.703125 0.78125 1.6875 0.78125q1.0 0 1.734375 -0.78125q0.734375 -0.796875 0.734375 -2.03125q0 -1.234375 -0.71875 -2.0625q-0.71875 -0.84375 -1.734375 -0.84375q-1.0 0 -1.703125 0.828125q-0.6875 0.828125 -0.6875 2.078125zm15.565689 -5.296875q1.78125 0 3.171875 1.5q1.40625 1.484375 1.40625 3.75q0 2.25 -1.40625 3.78125q-1.390625 1.515625 -3.265625 1.515625q-1.859375 0 -3.0 -1.5l0 5.03125l-2.859375 0l0 -13.90625l2.859375 0l0 1.140625q1.3125 -1.3125 3.09375 -1.3125zm-3.140625 5.296875q0 1.234375 0.6875 2.03125q0.703125 0.78125 1.6875 0.78125q1.0 0 1.734375 -0.78125q0.734375 -0.796875 0.734375 -2.03125q0 -1.234375 -0.71875 -2.0625q-0.71875 -0.84375 -1.734375 -0.84375q-1.0 0 -1.703125 0.828125q-0.6875 0.828125 -0.6875 2.078125zm12.471939 5.09375l-2.859375 0l0 -14.09375l2.859375 0l0 14.09375zm5.447632 0l-2.859375 0l0 -10.21875l2.859375 0l0 10.21875zm-2.609375 -11.515625q-0.484375 -0.5 -0.484375 -1.1875q0 -0.703125 0.484375 -1.1875q0.484375 -0.5 1.1875 -0.5q0.703125 0 1.1875 0.5q0.484375 0.484375 0.484375 1.1875q0 0.6875 -0.484375 1.1875q-0.484375 0.484375 -1.1875 0.484375q-0.703125 0 -1.1875 -0.484375zm10.103882 9.140625q1.421875 0 2.5625 -1.421875l1.6875 1.890625q-1.96875 2.0625 -4.265625 2.0625q-2.296875 0 -3.890625 -1.453125q-1.578125 -1.453125 -1.578125 -3.796875q0 -2.359375 1.59375 -3.828125q1.609375 -1.46875 3.8125 -1.46875q1.109375 0 2.234375 0.453125q1.125 0.453125 1.984375 1.34375l-1.484375 1.9375q-0.484375 -0.578125 -1.203125 -0.90625q-0.71875 -0.328125 -1.421875 -0.328125q-1.109375 0 -1.921875 0.734375q-0.8125 0.734375 -0.8125 2.046875q0 1.296875 0.8125 2.015625q0.8125 0.71875 1.890625 0.71875zm14.639191 2.375l-2.671875 0l0 -1.234375q-1.109375 1.390625 -2.734375 1.390625q-1.625 0 -2.734375 -0.9375q-1.09375 -0.953125 -1.09375 -2.515625q0 -1.5625 1.140625 -2.34375q1.140625 -0.78125 3.109375 -0.78125l2.140625 0l0 -0.0625q0 -1.625 -1.734375 -1.625q-0.734375 0 -1.5625 0.296875q-0.828125 0.28125 -1.40625 0.71875l-1.265625 -1.84375q2.015625 -1.453125 4.59375 -1.453125q1.859375 0 3.03125 0.9375q1.1875 0.921875 1.1875 2.9375l0 6.515625zm-2.875 -3.890625l0 -0.5l-1.78125 0q-1.703125 0 -1.703125 1.0625q0 0.546875 0.40625 0.84375q0.40625 0.296875 1.15625 0.296875q0.765625 0 1.34375 -0.453125q0.578125 -0.46875 0.578125 -1.25zm8.675568 -4.28125l0 4.578125q0 0.59375 0.296875 0.921875q0.3125 0.328125 0.734375 0.328125q0.796875 0 1.34375 -0.71875l1.0625 2.0q-1.328125 1.21875 -2.8125 1.21875q-1.46875 0 -2.484375 -0.96875q-1.015625 -0.96875 -1.015625 -2.640625l0 -4.71875l-1.1875 0l0 -2.046875l1.1875 0l0 -3.0625l2.875 0l0 3.0625l2.46875 0l0 2.046875l-2.46875 0zm7.6618805 8.171875l-2.859375 0l0 -10.21875l2.859375 0l0 10.21875zm-2.609375 -11.515625q-0.484375 -0.5 -0.484375 -1.1875q0 -0.703125 0.484375 -1.1875q0.484375 -0.5 1.1875 -0.5q0.703125 0 1.1875 0.5q0.484375 0.484375 0.484375 1.1875q0 0.6875 -0.484375 1.1875q-0.484375 0.484375 -1.1875 0.484375q-0.703125 0 -1.1875 -0.484375zm7.478882 6.40625q0 1.25 0.703125 2.046875q0.71875 0.78125 1.828125 0.78125q1.125 0 1.828125 -0.78125q0.71875 -0.796875 0.71875 -2.046875q0 -1.25 -0.71875 -2.046875q-0.703125 -0.8125 -1.828125 -0.8125q-1.109375 0 -1.828125 0.8125q-0.703125 0.796875 -0.703125 2.046875zm7.953125 0q0 2.21875 -1.546875 3.75q-1.53125 1.515625 -3.859375 1.515625q-2.328125 0 -3.875 -1.515625q-1.53125 -1.53125 -1.53125 -3.75q0 -2.21875 1.53125 -3.75q1.546875 -1.53125 3.875 -1.53125q2.328125 0 3.859375 1.53125q1.546875 1.53125 1.546875 3.75zm4.7329254 -0.59375l0 5.703125l-2.859375 0l0 -10.21875l2.859375 0l0 1.140625q1.28125 -1.3125 2.890625 -1.3125q1.625 0 2.71875 1.140625q1.09375 1.140625 1.09375 3.03125l0 6.21875l-2.84375 0l0 -5.78125q0 -2.34375 -1.734375 -2.34375q-0.859375 0 -1.5 0.625q-0.625 0.609375 -0.625 1.796875zm13.237213 -7.578125l5.375 0l0 13.28125l-2.859375 0l0 -10.75l-2.515625 0l0 -2.53125z" fill-rule="nonzero"></path><path fill="#000000" fill-opacity="0.0" d="m696.29395 354.89764l143.77954 0l0 37.417328l-143.77954 0z" fill-rule="nonzero"></path><path fill="#000000" d="m723.7171 368.07013l0 2.234375l-5.5625 0l0 2.296875l5.0 0l0 2.125l-5.0 0l0 2.328125l5.734375 0l0 2.203125l-8.234375 0l0 -11.1875l8.0625 0zm4.5578003 11.1875l-2.390625 0l0 -11.875l2.390625 0l0 11.875zm9.593872 0l-2.265625 0l0 -1.046875q-0.921875 1.171875 -2.296875 1.171875q-1.359375 0 -2.296875 -0.78125q-0.921875 -0.796875 -0.921875 -2.109375q0 -1.328125 0.953125 -1.984375q0.96875 -0.65625 2.625 -0.65625l1.796875 0l0 -0.046875q0 -1.375 -1.453125 -1.375q-0.625 0 -1.328125 0.25q-0.6875 0.234375 -1.171875 0.609375l-1.0625 -1.546875q1.6875 -1.234375 3.859375 -1.234375q1.578125 0 2.5625 0.78125q1.0 0.78125 1.0 2.484375l0 5.484375zm-2.421875 -3.28125l0 -0.421875l-1.5 0q-1.4375 0 -1.4375 0.90625q0 0.453125 0.34375 0.703125q0.34375 0.25 0.984375 0.25q0.640625 0 1.125 -0.390625q0.484375 -0.390625 0.484375 -1.046875zm11.082153 0.609375q0 1.265625 -0.9375 2.03125q-0.921875 0.765625 -2.375 0.765625q-0.953125 0 -2.0 -0.34375q-1.03125 -0.34375 -1.859375 -1.015625l1.046875 -1.5q1.34375 1.03125 2.875 1.03125q0.453125 0 0.71875 -0.171875q0.28125 -0.1875 0.28125 -0.484375q0 -0.3125 -0.375 -0.5625q-0.375 -0.265625 -1.09375 -0.484375q-0.703125 -0.21875 -1.078125 -0.375q-0.375 -0.171875 -0.859375 -0.46875q-0.984375 -0.609375 -0.984375 -1.796875q0 -1.203125 0.953125 -1.953125q0.96875 -0.75 2.484375 -0.75q1.53125 0 3.046875 1.015625l-0.890625 1.609375q-1.125 -0.765625 -2.234375 -0.765625q-1.109375 0 -1.109375 0.609375q0 0.328125 0.34375 0.53125q0.359375 0.1875 1.171875 0.4375q0.8125 0.25 1.15625 0.390625q0.34375 0.140625 0.828125 0.421875q0.890625 0.546875 0.890625 1.828125zm4.7106323 -4.203125l0 3.84375q0 0.5 0.25 0.78125q0.265625 0.28125 0.609375 0.28125q0.671875 0 1.140625 -0.609375l0.890625 1.6875q-1.109375 1.015625 -2.359375 1.015625q-1.234375 0 -2.09375 -0.8125q-0.859375 -0.8125 -0.859375 -2.21875l0 -3.96875l-1.0 0l0 -1.734375l1.0 0l0 -2.578125l2.421875 0l0 2.578125l2.078125 0l0 1.734375l-2.078125 0zm6.571289 6.875l-2.390625 0l0 -8.609375l2.390625 0l0 8.609375zm-2.203125 -9.703125q-0.40625 -0.40625 -0.40625 -1.0q0 -0.59375 0.40625 -1.0q0.421875 -0.40625 1.0 -0.40625q0.59375 0 1.0 0.40625q0.421875 0.40625 0.421875 1.0q0 0.59375 -0.421875 1.0q-0.40625 0.40625 -1.0 0.40625q-0.578125 0 -1.0 -0.40625zm8.609497 7.703125q1.203125 0 2.15625 -1.203125l1.421875 1.609375q-1.65625 1.71875 -3.59375 1.71875q-1.9375 0 -3.28125 -1.21875q-1.328125 -1.21875 -1.328125 -3.1875q0 -1.984375 1.34375 -3.21875q1.359375 -1.25 3.21875 -1.25q0.921875 0 1.875 0.390625q0.953125 0.375 1.671875 1.125l-1.25 1.640625q-0.40625 -0.5 -1.015625 -0.765625q-0.59375 -0.28125 -1.1875 -0.28125q-0.9375 0 -1.625 0.625q-0.6875 0.609375 -0.6875 1.703125q0 1.09375 0.6875 1.703125q0.6875 0.609375 1.59375 0.609375zm11.655762 -0.671875q0 1.265625 -0.9375 2.03125q-0.921875 0.765625 -2.375 0.765625q-0.953125 0 -2.0 -0.34375q-1.03125 -0.34375 -1.859375 -1.015625l1.046875 -1.5q1.34375 1.03125 2.875 1.03125q0.453125 0 0.71875 -0.171875q0.28125 -0.1875 0.28125 -0.484375q0 -0.3125 -0.375 -0.5625q-0.375 -0.265625 -1.09375 -0.484375q-0.703125 -0.21875 -1.078125 -0.375q-0.375 -0.171875 -0.859375 -0.46875q-0.984375 -0.609375 -0.984375 -1.796875q0 -1.203125 0.953125 -1.953125q0.96875 -0.75 2.484375 -0.75q1.53125 0 3.046875 1.015625l-0.890625 1.609375q-1.125 -0.765625 -2.234375 -0.765625q-1.109375 0 -1.109375 0.609375q0 0.328125 0.34375 0.53125q0.359375 0.1875 1.171875 0.4375q0.8125 0.25 1.15625 0.390625q0.34375 0.140625 0.828125 0.421875q0.890625 0.546875 0.890625 1.828125zm9.304382 1.421875q-1.453125 1.375 -3.421875 1.375q-1.953125 0 -3.234375 -1.203125q-1.28125 -1.203125 -1.28125 -3.234375q0 -2.046875 1.296875 -3.234375q1.3125 -1.203125 3.078125 -1.203125q1.78125 0 3.015625 1.078125q1.25 1.0625 1.25 2.9375l0 1.28125l-6.265625 0q0.109375 0.703125 0.734375 1.15625q0.625 0.4375 1.40625 0.4375q1.265625 0 2.078125 -0.84375l1.34375 1.453125zm-1.734375 -3.921875q-0.078125 -0.765625 -0.578125 -1.171875q-0.484375 -0.421875 -1.203125 -0.421875q-0.703125 0 -1.296875 0.4375q-0.59375 0.421875 -0.6875 1.15625l3.765625 0zm11.4817505 5.171875l-2.265625 0l0 -1.046875q-0.921875 1.171875 -2.296875 1.171875q-1.359375 0 -2.296875 -0.78125q-0.921875 -0.796875 -0.921875 -2.109375q0 -1.328125 0.953125 -1.984375q0.96875 -0.65625 2.625 -0.65625l1.796875 0l0 -0.046875q0 -1.375 -1.453125 -1.375q-0.625 0 -1.328125 0.25q-0.6875 0.234375 -1.171875 0.609375l-1.0625 -1.546875q1.6875 -1.234375 3.859375 -1.234375q1.578125 0 2.5625 0.78125q1.0 0.78125 1.0 2.484375l0 5.484375zm-2.421875 -3.28125l0 -0.421875l-1.5 0q-1.4375 0 -1.4375 0.90625q0 0.453125 0.34375 0.703125q0.34375 0.25 0.984375 0.25q0.640625 0 1.125 -0.390625q0.484375 -0.390625 0.484375 -1.046875zm9.129028 -3.21875q-1.0625 0 -1.59375 0.765625q-0.53125 0.765625 -0.53125 2.0l0 3.734375l-2.390625 0l0 -8.609375l2.390625 0l0 1.140625q0.46875 -0.53125 1.15625 -0.890625q0.703125 -0.375 1.421875 -0.390625l0.015625 2.25l-0.46875 0zm6.185425 4.5q1.203125 0 2.15625 -1.203125l1.421875 1.609375q-1.65625 1.71875 -3.59375 1.71875q-1.9375 0 -3.28125 -1.21875q-1.328125 -1.21875 -1.328125 -3.1875q0 -1.984375 1.34375 -3.21875q1.359375 -1.25 3.21875 -1.25q0.921875 0 1.875 0.390625q0.953125 0.375 1.671875 1.125l-1.25 1.640625q-0.40625 -0.5 -1.015625 -0.765625q-0.59375 -0.28125 -1.1875 -0.28125q-0.9375 0 -1.625 0.625q-0.6875 0.609375 -0.6875 1.703125q0 1.09375 0.6875 1.703125q0.6875 0.609375 1.59375 0.609375zm7.5776367 -2.640625l0 4.640625l-2.390625 0l0 -11.875l2.390625 0l0 4.234375q1.09375 -1.109375 2.4375 -1.109375q1.359375 0 2.28125 0.96875q0.9375 0.953125 0.9375 2.546875l0 5.234375l-2.40625 0l0 -4.703125q0 -1.984375 -1.453125 -1.984375q-0.71875 0 -1.265625 0.53125q-0.53125 0.515625 -0.53125 1.515625z" fill-rule="nonzero"></path><path fill="#000000" fill-opacity="0.0" d="m888.0735 257.88977l0 110.86615l-48.0 0l0 -110.86615z" fill-rule="nonzero"></path><path fill="#000000" d="m874.901 268.26477l0 2.5l-4.59375 0l4.59375 4.21875l0 3.09375l-4.953125 -4.453125q-0.796875 0.578125 -2.984375 2.125q-2.171875 1.5625 -3.25 2.328125l0 -2.921875l4.421875 -3.28125l-1.25 -1.109375l-3.171875 0l0 -2.5l11.1875 0zm-11.1875 13.516266l0 -2.390625l8.609375 0l0 2.390625l-8.609375 0zm9.703125 -2.203125q0.40625 -0.40625 1.0 -0.40625q0.59375 0 1.0 0.40625q0.40625 0.421875 0.40625 1.0q0 0.59375 -0.40625 1.0q-0.40625 0.421875 -1.0 0.421875q-0.59375 0 -1.0 -0.421875q-0.40625 -0.40625 -0.40625 -1.0q0 -0.578125 0.40625 -1.0zm-0.953125 9.437622q0 1.5625 -1.234375 2.734375q-1.21875 1.171875 -3.140625 1.171875q-1.90625 0 -3.203125 -1.203125q-1.296875 -1.203125 -1.296875 -2.734375q0 -1.515625 1.265625 -2.53125l-1.140625 0l0 -2.390625l11.875 0l0 2.390625l-4.234375 0q1.109375 1.0 1.109375 2.5625zm-4.453125 -2.59375q-1.046875 0 -1.71875 0.578125q-0.65625 0.59375 -0.65625 1.421875q0 0.84375 0.65625 1.453125q0.671875 0.625 1.703125 0.625q1.046875 0 1.75 -0.609375q0.703125 -0.59375 0.703125 -1.453125q0 -0.84375 -0.703125 -1.4375q-0.6875 -0.578125 -1.734375 -0.578125zm-4.296875 15.609161l0 -2.265625l1.046875 0q-1.171875 -0.921875 -1.171875 -2.296875q0 -1.359375 0.78125 -2.296875q0.796875 -0.921875 2.109375 -0.921875q1.328125 0 1.984375 0.953125q0.65625 0.96875 0.65625 2.625l0 1.796875l0.046875 0q1.375 0 1.375 -1.453125q0 -0.625 -0.25 -1.328125q-0.234375 -0.6875 -0.609375 -1.171875l1.546875 -1.0625q1.234375 1.6875 1.234375 3.859375q0 1.578125 -0.78125 2.5625q-0.78125 1.0 -2.484375 1.0l-5.484375 0zm3.28125 -2.421875l0.421875 0l0 -1.5q0 -1.4375 -0.90625 -1.4375q-0.453125 0 -0.703125 0.34375q-0.25 0.34375 -0.25 0.984375q0 0.640625 0.390625 1.125q0.390625 0.484375 1.046875 0.484375zm1.515625 7.003998l-4.796875 0l0 -2.390625l8.609375 0l0 2.390625l-0.96875 0q1.109375 1.09375 1.109375 2.453125q0 1.359375 -0.96875 2.28125q-0.953125 0.921875 -2.546875 0.921875l-5.234375 0l0 -2.40625l4.859375 0q1.984375 0 1.984375 -1.453125q0 -0.71875 -0.515625 -1.265625q-0.515625 -0.53125 -1.53125 -0.53125zm-4.796875 15.145905l0 -2.265625l1.046875 0q-1.171875 -0.921875 -1.171875 -2.296875q0 -1.359375 0.78125 -2.296875q0.796875 -0.921875 2.109375 -0.921875q1.328125 0 1.984375 0.953125q0.65625 0.96875 0.65625 2.625l0 1.796875l0.046875 0q1.375 0 1.375 -1.453125q0 -0.625 -0.25 -1.328125q-0.234375 -0.6875 -0.609375 -1.171875l1.546875 -1.0625q1.234375 1.6875 1.234375 3.859375q0 1.578125 -0.78125 2.5625q-0.78125 1.0 -2.484375 1.0l-5.484375 0zm3.28125 -2.421875l0.421875 0l0 -1.5q0 -1.4375 -0.90625 -1.4375q-0.453125 0 -0.703125 0.34375q-0.25 0.34375 -0.25 0.984375q0 0.640625 0.390625 1.125q0.390625 0.484375 1.046875 0.484375z" fill-rule="nonzero"></path><path fill="#000000" fill-opacity="0.0" d="m127.3937 345.7743l0.40944672 37.606293" fill-rule="nonzero"></path><path stroke="#000000" stroke-width="2.0" stroke-linejoin="round" stroke-linecap="butt" d="m127.3937 345.7743l0.27880096 25.606995" fill-rule="evenodd"></path><path fill="#000000" stroke="#000000" stroke-width="2.0" stroke-linecap="butt" d="m124.36923 371.41727l3.4020844 9.039673l3.2044525 -9.111603z" fill-rule="evenodd"></path><path fill="#000000" fill-opacity="0.0" d="m149.4252 407.1601l121.921265 0" fill-rule="nonzero"></path><path stroke="#000000" stroke-width="2.0" stroke-linejoin="round" stroke-linecap="butt" d="m149.4252 407.1601l109.921265 0" fill-rule="evenodd"></path><path fill="#000000" stroke="#000000" stroke-width="2.0" stroke-linecap="butt" d="m259.34647 410.46356l9.076172 -3.3034668l-9.076172 -3.3034668z" fill-rule="evenodd"></path><path fill="#000000" fill-opacity="0.0" d="m279.09543 425.8678l-128.25195 1.0078735" fill-rule="nonzero"></path><path stroke="#000000" stroke-width="2.0" stroke-linejoin="round" stroke-linecap="butt" d="m279.09546 425.86783l-116.25235 0.9135742" fill-rule="evenodd"></path><path fill="#000000" stroke="#000000" stroke-width="2.0" stroke-linecap="butt" d="m162.81714 423.47803l-9.049957 3.3746948l9.101883 3.2320251z" fill-rule="evenodd"></path><path fill="#000000" fill-opacity="0.0" d="m814.93964 306.3937l37.700806 0.03149414" fill-rule="nonzero"></path><path stroke="#000000" stroke-width="2.0" stroke-linejoin="round" stroke-linecap="butt" d="m814.93964 306.3937l25.700806 0.021453857" fill-rule="evenodd"></path><path fill="#000000" stroke="#000000" stroke-width="2.0" stroke-linecap="butt" d="m840.6377 309.71863l9.078918 -3.295868l-9.073425 -3.3110657z" fill-rule="evenodd"></path><path fill="#000000" fill-opacity="0.0" d="m225.91339 428.042l143.77951 0l0 37.417328l-143.77951 0z" fill-rule="nonzero"></path><path fill="#000000" d="m264.4661 452.402l0 -11.1875l2.5 0l0 8.96875l4.765625 0l0 2.21875l-7.265625 0zm10.775513 -4.296875q0 1.046875 0.59375 1.71875q0.59375 0.65625 1.53125 0.65625q0.9375 0 1.53125 -0.65625q0.609375 -0.671875 0.609375 -1.71875q0 -1.0625 -0.609375 -1.734375q-0.59375 -0.671875 -1.53125 -0.671875q-0.9375 0 -1.53125 0.671875q-0.59375 0.671875 -0.59375 1.734375zm6.6875 0q0 1.859375 -1.296875 3.140625q-1.296875 1.28125 -3.265625 1.28125q-1.953125 0 -3.25 -1.28125q-1.296875 -1.28125 -1.296875 -3.140625q0 -1.875 1.296875 -3.15625q1.296875 -1.296875 3.25 -1.296875q1.96875 0 3.265625 1.296875q1.296875 1.28125 1.296875 3.15625zm7.8058777 -0.1875q0 -1.03125 -0.578125 -1.625q-0.578125 -0.59375 -1.4375 -0.59375q-0.84375 0 -1.453125 0.59375q-0.609375 0.59375 -0.609375 1.625q0 1.015625 0.59375 1.65625q0.59375 0.625 1.453125 0.625q0.875 0 1.453125 -0.625q0.578125 -0.625 0.578125 -1.65625zm0.328125 3.03125q-1.125 1.265625 -2.828125 1.265625q-1.6875 0 -2.84375 -1.140625q-1.15625 -1.15625 -1.15625 -3.0625q0 -1.90625 1.1875 -3.125q1.203125 -1.234375 2.734375 -1.234375q1.53125 0 2.546875 1.265625l0 -1.140625l2.390625 0l0 7.5q0 1.15625 -0.40625 2.046875q-0.390625 0.90625 -1.0625 1.421875q-1.328125 1.046875 -3.140625 1.046875q-0.953125 0 -1.953125 -0.3125q-1.0 -0.3125 -1.75 -0.890625l0.921875 -1.796875q1.1875 0.890625 2.5 0.890625q1.328125 0 2.09375 -0.65625q0.765625 -0.65625 0.765625 -2.078125zm12.234528 -9.734375l0 2.203125l-5.1875 0l0 2.40625l4.921875 0l0 2.1875l-4.921875 0l0 4.390625l-2.5 0l0 -11.1875l7.6875 0zm4.2607727 11.1875l-2.390625 0l0 -11.875l2.390625 0l0 11.875zm4.2032776 -4.296875q0 1.046875 0.59375 1.71875q0.59375 0.65625 1.53125 0.65625q0.9375 0 1.53125 -0.65625q0.609375 -0.671875 0.609375 -1.71875q0 -1.0625 -0.609375 -1.734375q-0.59375 -0.671875 -1.53125 -0.671875q-0.9375 0 -1.53125 0.671875q-0.59375 0.671875 -0.59375 1.734375zm6.6875 0q0 1.859375 -1.296875 3.140625q-1.296875 1.28125 -3.265625 1.28125q-1.953125 0 -3.25 -1.28125q-1.296875 -1.28125 -1.296875 -3.140625q0 -1.875 1.296875 -3.15625q1.296875 -1.296875 3.25 -1.296875q1.96875 0 3.265625 1.296875q1.296875 1.28125 1.296875 3.15625zm6.2433777 4.296875l-2.46875 0l-2.9375 -8.609375l2.484375 0l1.6875 5.203125l1.671875 -5.203125l2.328125 0l1.671875 5.203125l1.6875 -5.203125l2.484375 0l-2.921875 8.609375l-2.5 0l-1.578125 -4.6875l-1.609375 4.6875z" fill-rule="nonzero"></path><path fill="#000000" fill-opacity="0.0" d="m55.70866 428.042l143.77953 0l0 37.417328l-143.77953 0z" fill-rule="nonzero"></path><path fill="#000000" d="m82.31844 441.2145q2.984375 0 4.578125 1.46875q1.609375 1.46875 1.609375 4.078125q0 2.59375 -1.5625 4.125q-1.546875 1.515625 -4.75 1.515625l-3.828125 0l0 -11.1875l3.953125 0zm0.125 8.984375q1.71875 0 2.640625 -0.859375q0.921875 -0.875 0.921875 -2.515625q0 -1.65625 -0.921875 -2.546875q-0.921875 -0.890625 -2.828125 -0.890625l-1.390625 0l0 6.8125l1.578125 0zm10.382156 2.203125l-2.390625 0l0 -8.609375l2.390625 0l0 8.609375zm-2.203125 -9.703125q-0.40625 -0.40625 -0.40625 -1.0q0 -0.59375 0.40625 -1.0q0.421875 -0.40625 1.0 -0.40625q0.59375 0 1.0 0.40625q0.421875 0.40625 0.421875 1.0q0 0.59375 -0.421875 1.0q-0.40625 0.40625 -1.0 0.40625q-0.578125 0 -1.0 -0.40625zm10.953262 7.03125q0 1.265625 -0.9375 2.03125q-0.921875 0.765625 -2.375 0.765625q-0.953125 0 -2.0 -0.34375q-1.03125 -0.34375 -1.859375 -1.015625l1.046875 -1.5q1.34375 1.03125 2.875 1.03125q0.453125 0 0.71875 -0.171875q0.28125 -0.1875 0.28125 -0.484375q0 -0.3125 -0.375 -0.5625q-0.375 -0.265625 -1.09375 -0.484375q-0.703125 -0.21875 -1.078125 -0.375q-0.375 -0.171875 -0.859375 -0.46875q-0.984375 -0.609375 -0.984375 -1.796875q0 -1.203125 0.953125 -1.953125q0.96875 -0.75 2.484375 -0.75q1.53125 0 3.046875 1.015625l-0.890625 1.609375q-1.125 -0.765625 -2.234375 -0.765625q-1.109375 0 -1.109375 0.609375q0 0.328125 0.34375 0.53125q0.359375 0.1875 1.171875 0.4375q0.8125 0.25 1.15625 0.390625q0.34375 0.140625 0.828125 0.421875q0.890625 0.546875 0.890625 1.828125zm5.9762726 0.671875q1.203125 0 2.15625 -1.203125l1.421875 1.609375q-1.65625 1.71875 -3.59375 1.71875q-1.9375 0 -3.28125 -1.21875q-1.328125 -1.21875 -1.328125 -3.1875q0 -1.984375 1.34375 -3.21875q1.359375 -1.25 3.21875 -1.25q0.921875 0 1.875 0.390625q0.953125 0.375 1.671875 1.125l-1.25 1.640625q-0.40625 -0.5 -1.015625 -0.765625q-0.59375 -0.28125 -1.1875 -0.28125q-0.9375 0 -1.625 0.625q-0.6875 0.609375 -0.6875 1.703125q0 1.09375 0.6875 1.703125q0.6875 0.609375 1.59375 0.609375zm15.879776 -0.671875q0 1.265625 -0.9375 2.03125q-0.921875 0.765625 -2.375 0.765625q-0.953125 0 -2.0 -0.34375q-1.03125 -0.34375 -1.859375 -1.015625l1.046875 -1.5q1.34375 1.03125 2.875 1.03125q0.453125 0 0.71875 -0.171875q0.28125 -0.1875 0.28125 -0.484375q0 -0.3125 -0.375 -0.5625q-0.375 -0.265625 -1.09375 -0.484375q-0.703125 -0.21875 -1.078125 -0.375q-0.375 -0.171875 -0.859375 -0.46875q-0.984375 -0.609375 -0.984375 -1.796875q0 -1.203125 0.953125 -1.953125q0.96875 -0.75 2.484375 -0.75q1.53125 0 3.046875 1.015625l-0.890625 1.609375q-1.125 -0.765625 -2.234375 -0.765625q-1.109375 0 -1.109375 0.609375q0 0.328125 0.34375 0.53125q0.359375 0.1875 1.171875 0.4375q0.8125 0.25 1.15625 0.390625q0.34375 0.140625 0.828125 0.421875q0.890625 0.546875 0.890625 1.828125zm4.71064 -4.203125l0 3.84375q0 0.5 0.25 0.78125q0.265625 0.28125 0.609375 0.28125q0.671875 0 1.140625 -0.609375l0.890625 1.6875q-1.109375 1.015625 -2.359375 1.015625q-1.2343674 0 -2.0937424 -0.8125q-0.859375 -0.8125 -0.859375 -2.21875l0 -3.96875l-1.0 0l0 -1.734375l1.0 0l0 -2.578125l2.4218674 0l0 2.578125l2.078125 0l0 1.734375l-2.078125 0zm6.1025085 2.578125q0 1.046875 0.59375 1.71875q0.59375 0.65625 1.53125 0.65625q0.9375 0 1.53125 -0.65625q0.609375 -0.671875 0.609375 -1.71875q0 -1.0625 -0.609375 -1.734375q-0.59375 -0.671875 -1.53125 -0.671875q-0.9375 0 -1.53125 0.671875q-0.59375 0.671875 -0.59375 1.734375zm6.6875 0q0 1.859375 -1.296875 3.140625q-1.296875 1.28125 -3.265625 1.28125q-1.953125 0 -3.25 -1.28125q-1.296875 -1.28125 -1.296875 -3.140625q0 -1.875 1.296875 -3.15625q1.296875 -1.296875 3.25 -1.296875q1.96875 0 3.265625 1.296875q1.296875 1.28125 1.296875 3.15625zm6.290268 -2.203125q-1.0625 0 -1.59375 0.765625q-0.53125 0.765625 -0.53125 2.0l0 3.734375l-2.390625 0l0 -8.609375l2.390625 0l0 1.140625q0.46875 -0.53125 1.15625 -0.890625q0.703125 -0.375 1.421875 -0.390625l0.015625 2.25l-0.46875 0zm9.372894 6.5l-2.265625 0l0 -1.046875q-0.921875 1.171875 -2.296875 1.171875q-1.359375 0 -2.296875 -0.78125q-0.921875 -0.796875 -0.921875 -2.109375q0 -1.328125 0.953125 -1.984375q0.96875 -0.65625 2.625 -0.65625l1.796875 0l0 -0.046875q0 -1.375 -1.453125 -1.375q-0.625 0 -1.328125 0.25q-0.6875 0.234375 -1.171875 0.609375l-1.0625 -1.546875q1.6875 -1.234375 3.859375 -1.234375q1.578125 0 2.5625 0.78125q1.0 0.78125 1.0 2.484375l0 5.484375zm-2.421875 -3.28125l0 -0.421875l-1.5 0q-1.4375 0 -1.4375 0.90625q0 0.453125 0.34375 0.703125q0.34375 0.25 0.984375 0.25q0.640625 0 1.125 -0.390625q0.484375 -0.390625 0.484375 -1.046875zm10.644638 -1.203125q0 -1.03125 -0.578125 -1.625q-0.578125 -0.59375 -1.4375 -0.59375q-0.84375 0 -1.453125 0.59375q-0.609375 0.59375 -0.609375 1.625q0 1.015625 0.59375 1.65625q0.59375 0.625 1.453125 0.625q0.875 0 1.453125 -0.625q0.578125 -0.625 0.578125 -1.65625zm0.328125 3.03125q-1.125 1.265625 -2.828125 1.265625q-1.6875 0 -2.84375 -1.140625q-1.15625 -1.15625 -1.15625 -3.0625q0 -1.90625 1.1875 -3.125q1.203125 -1.234375 2.734375 -1.234375q1.53125 0 2.546875 1.265625l0 -1.140625l2.390625 0l0 7.5q0 1.15625 -0.40625 2.046875q-0.390625 0.90625 -1.0625 1.421875q-1.328125 1.046875 -3.140625 1.046875q-0.953125 0 -1.953125 -0.3125q-1.0 -0.3125 -1.75 -0.890625l0.921875 -1.796875q1.1875 0.890625 2.5 0.890625q1.328125 0 2.09375 -0.65625q0.765625 -0.65625 0.765625 -2.078125zm11.765778 0.203125q-1.453125 1.375 -3.421875 1.375q-1.953125 0 -3.234375 -1.203125q-1.28125 -1.203125 -1.28125 -3.234375q0 -2.046875 1.296875 -3.234375q1.3125 -1.203125 3.078125 -1.203125q1.78125 0 3.015625 1.078125q1.25 1.0625 1.25 2.9375l0 1.28125l-6.265625 0q0.109375 0.703125 0.734375 1.15625q0.625 0.4375 1.40625 0.4375q1.265625 0 2.078125 -0.84375l1.34375 1.453125zm-1.734375 -3.921875q-0.078125 -0.765625 -0.578125 -1.171875q-0.484375 -0.421875 -1.203125 -0.421875q-0.703125 0 -1.296875 0.4375q-0.59375 0.421875 -0.6875 1.15625l3.765625 0z" fill-rule="nonzero"></path><path fill="#000000" fill-opacity="0.0" d="m576.8688 329.86877l143.77954 0l0 37.417328l-143.77954 0z" fill-rule="nonzero"></path><path fill="#000000" d="m607.06647 350.16626l2.859375 -7.125l2.703125 0l-4.5 11.1875l-2.109375 0l-4.5 -11.1875l2.703125 0l2.84375 7.125zm14.101746 2.8125q-1.453125 1.375 -3.421875 1.375q-1.953125 0 -3.234375 -1.203125q-1.28125 -1.203125 -1.28125 -3.234375q0 -2.046875 1.296875 -3.234375q1.3125 -1.203125 3.078125 -1.203125q1.78125 0 3.015625 1.078125q1.25 1.0625 1.25 2.9375l0 1.28125l-6.265625 0q0.109375 0.703125 0.734375 1.15625q0.625 0.4375 1.40625 0.4375q1.265625 0 2.078125 -0.84375l1.34375 1.453125zm-1.734375 -3.921875q-0.078125 -0.765625 -0.578125 -1.171875q-0.484375 -0.421875 -1.203125 -0.421875q-0.703125 0 -1.296875 0.4375q-0.59375 0.421875 -0.6875 1.15625l3.765625 0zm8.6848755 -1.328125q-1.0625 0 -1.59375 0.765625q-0.53125 0.765625 -0.53125 2.0l0 3.734375l-2.390625 0l0 -8.609375l2.390625 0l0 1.140625q0.46875 -0.53125 1.15625 -0.890625q0.703125 -0.375 1.421875 -0.390625l0.015625 2.25l-0.46875 0zm4.45105 6.5l-2.390625 0l0 -8.609375l2.390625 0l0 8.609375zm-2.203125 -9.703125q-0.40625 -0.40625 -0.40625 -1.0q0 -0.59375 0.40625 -1.0q0.421875 -0.40625 1.0 -0.40625q0.59375 0 1.0 0.40625q0.421875 0.40625 0.421875 1.0q0 0.59375 -0.421875 1.0q-0.40625 0.40625 -1.0 0.40625q-0.578125 0 -1.0 -0.40625zm7.343872 0.59375l0 0.578125l2.078125 0l0 1.734375l-2.078125 0l0 6.796875l-2.421875 0l0 -6.796875l-1.0 0l0 -1.734375l1.0 0l0 -0.53125q0 -1.40625 0.859375 -2.21875q0.859375 -0.828125 2.125 -0.828125q1.28125 0 2.3125 0.953125l-0.859375 1.625q-0.53125 -0.609375 -1.171875 -0.609375q-0.359375 0 -0.609375 0.265625q-0.234375 0.265625 -0.234375 0.765625zm5.963257 9.109375l-2.390625 0l0 -8.609375l2.390625 0l0 8.609375zm-2.203125 -9.703125q-0.40625 -0.40625 -0.40625 -1.0q0 -0.59375 0.40625 -1.0q0.421875 -0.40625 1.0 -0.40625q0.59375 0 1.0 0.40625q0.421875 0.40625 0.421875 1.0q0 0.59375 -0.421875 1.0q-0.40625 0.40625 -1.0 0.40625q-0.578125 0 -1.0 -0.40625zm8.609497 7.703125q1.203125 0 2.15625 -1.203125l1.421875 1.609375q-1.65625 1.71875 -3.59375 1.71875q-1.9375 0 -3.28125 -1.21875q-1.328125 -1.21875 -1.328125 -3.1875q0 -1.984375 1.34375 -3.21875q1.359375 -1.25 3.21875 -1.25q0.921875 0 1.875 0.390625q0.953125 0.375 1.671875 1.125l-1.25 1.640625q-0.40625 -0.5 -1.015625 -0.765625q-0.59375 -0.28125 -1.1875 -0.28125q-0.9375 0 -1.625 0.625q-0.6875 0.609375 -0.6875 1.703125q0 1.09375 0.6875 1.703125q0.6875 0.609375 1.59375 0.609375zm12.499512 2.0l-2.265625 0l0 -1.046875q-0.921875 1.171875 -2.296875 1.171875q-1.359375 0 -2.296875 -0.78125q-0.921875 -0.796875 -0.921875 -2.109375q0 -1.328125 0.953125 -1.984375q0.96875 -0.65625 2.625 -0.65625l1.796875 0l0 -0.046875q0 -1.375 -1.453125 -1.375q-0.625 0 -1.328125 0.25q-0.6875 0.234375 -1.171875 0.609375l-1.0625 -1.546875q1.6875 -1.234375 3.859375 -1.234375q1.578125 0 2.5625 0.78125q1.0 0.78125 1.0 2.484375l0 5.484375zm-2.421875 -3.28125l0 -0.421875l-1.5 0q-1.4375 0 -1.4375 0.90625q0 0.453125 0.34375 0.703125q0.34375 0.25 0.984375 0.25q0.640625 0 1.125 -0.390625q0.484375 -0.390625 0.484375 -1.046875zm7.4727783 -3.59375l0 3.84375q0 0.5 0.25 0.78125q0.265625 0.28125 0.609375 0.28125q0.671875 0 1.140625 -0.609375l0.890625 1.6875q-1.109375 1.015625 -2.359375 1.015625q-1.234375 0 -2.09375 -0.8125q-0.859375 -0.8125 -0.859375 -2.21875l0 -3.96875l-1.0 0l0 -1.734375l1.0 0l0 -2.578125l2.421875 0l0 2.578125l2.078125 0l0 1.734375l-2.078125 0zm6.571289 6.875l-2.390625 0l0 -8.609375l2.390625 0l0 8.609375zm-2.203125 -9.703125q-0.40625 -0.40625 -0.40625 -1.0q0 -0.59375 0.40625 -1.0q0.421875 -0.40625 1.0 -0.40625q0.59375 0 1.0 0.40625q0.421875 0.40625 0.421875 1.0q0 0.59375 -0.421875 1.0q-0.40625 0.40625 -1.0 0.40625q-0.578125 0 -1.0 -0.40625zm6.406372 5.40625q0 1.046875 0.59375 1.71875q0.59375 0.65625 1.53125 0.65625q0.9375 0 1.53125 -0.65625q0.609375 -0.671875 0.609375 -1.71875q0 -1.0625 -0.609375 -1.734375q-0.59375 -0.671875 -1.53125 -0.671875q-0.9375 0 -1.53125 0.671875q-0.59375 0.671875 -0.59375 1.734375zm6.6875 0q0 1.859375 -1.296875 3.140625q-1.296875 1.28125 -3.265625 1.28125q-1.953125 0 -3.25 -1.28125q-1.296875 -1.28125 -1.296875 -3.140625q0 -1.875 1.296875 -3.15625q1.296875 -1.296875 3.25 -1.296875q1.96875 0 3.265625 1.296875q1.296875 1.28125 1.296875 3.15625zm4.165283 -0.5l0 4.796875l-2.390625 0l0 -8.609375l2.390625 0l0 0.96875q1.09375 -1.109375 2.453125 -1.109375q1.359375 0 2.28125 0.96875q0.921875 0.953125 0.921875 2.546875l0 5.234375l-2.40625 0l0 -4.859375q0 -1.984375 -1.453125 -1.984375q-0.71875 0 -1.265625 0.515625q-0.53125 0.515625 -0.53125 1.53125z" fill-rule="nonzero"></path><path fill="#000000" d="m627.35187 370.5569q0 1.265625 -0.9375 2.03125q-0.921875 0.765625 -2.375 0.765625q-0.953125 0 -2.0 -0.34375q-1.03125 -0.34375 -1.859375 -1.015625l1.046875 -1.5q1.34375 1.03125 2.875 1.03125q0.453125 0 0.71875 -0.171875q0.28125 -0.1875 0.28125 -0.484375q0 -0.3125 -0.375 -0.5625q-0.375 -0.265625 -1.09375 -0.484375q-0.703125 -0.21875 -1.078125 -0.375q-0.375 -0.171875 -0.859375 -0.46875q-0.984375 -0.609375 -0.984375 -1.796875q0 -1.203125 0.953125 -1.953125q0.96875 -0.75 2.484375 -0.75q1.53125 0 3.046875 1.015625l-0.890625 1.609375q-1.125 -0.765625 -2.234375 -0.765625q-1.109375 0 -1.109375 0.609375q0 0.328125 0.34375 0.53125q0.359375 0.1875 1.171875 0.4375q0.8125 0.25 1.15625 0.390625q0.34375 0.140625 0.828125 0.421875q0.890625 0.546875 0.890625 1.828125zm9.304382 1.421875q-1.453125 1.375 -3.421875 1.375q-1.953125 0 -3.234375 -1.203125q-1.28125 -1.203125 -1.28125 -3.234375q0 -2.046875 1.296875 -3.234375q1.3125 -1.203125 3.078125 -1.203125q1.78125 0 3.015625 1.078125q1.25 1.0625 1.25 2.9375l0 1.28125l-6.265625 0q0.109375 0.703125 0.734375 1.15625q0.625 0.4375 1.40625 0.4375q1.265625 0 2.078125 -0.84375l1.34375 1.453125zm-1.734375 -3.921875q-0.078125 -0.765625 -0.578125 -1.171875q-0.484375 -0.421875 -1.203125 -0.421875q-0.703125 0 -1.296875 0.4375q-0.59375 0.421875 -0.6875 1.15625l3.765625 0zm8.6848755 -1.328125q-1.0625 0 -1.59375 0.765625q-0.53125 0.765625 -0.53125 2.0l0 3.734375l-2.390625 0l0 -8.609375l2.390625 0l0 1.140625q0.46875 -0.53125 1.15625 -0.890625q0.703125 -0.375 1.421875 -0.390625l0.015625 2.25l-0.46875 0zm4.372925 6.5l-3.40625 -8.625l2.5 0l2.140625 5.421875l2.140625 -5.421875l2.5 0l-3.40625 8.625l-2.46875 0zm9.454102 0l-2.390625 0l0 -8.609375l2.390625 0l0 8.609375zm-2.203125 -9.703125q-0.40625 -0.40625 -0.40625 -1.0q0 -0.59375 0.40625 -1.0q0.421875 -0.40625 1.0 -0.40625q0.59375 0 1.0 0.40625q0.421875 0.40625 0.421875 1.0q0 0.59375 -0.421875 1.0q-0.40625 0.40625 -1.0 0.40625q-0.578125 0 -1.0 -0.40625zm8.609558 7.703125q1.203125 0 2.15625 -1.203125l1.421875 1.609375q-1.65625 1.71875 -3.59375 1.71875q-1.9375 0 -3.28125 -1.21875q-1.328125 -1.21875 -1.328125 -3.1875q0 -1.984375 1.34375 -3.21875q1.359375 -1.25 3.21875 -1.25q0.921875 0 1.875 0.390625q0.953125 0.375 1.671875 1.125l-1.25 1.640625q-0.40625 -0.5 -1.015625 -0.765625q-0.59375 -0.28125 -1.1875 -0.28125q-0.9375 0 -1.625 0.625q-0.6875 0.609375 -0.6875 1.703125q0 1.09375 0.6875 1.703125q0.6875 0.609375 1.59375 0.609375zm12.640137 0.75q-1.453125 1.375 -3.421875 1.375q-1.953125 0 -3.234375 -1.203125q-1.28125 -1.203125 -1.28125 -3.234375q0 -2.046875 1.296875 -3.234375q1.3125 -1.203125 3.078125 -1.203125q1.78125 0 3.015625 1.078125q1.25 1.0625 1.25 2.9375l0 1.28125l-6.265625 0q0.109375 0.703125 0.734375 1.15625q0.625 0.4375 1.40625 0.4375q1.265625 0 2.078125 -0.84375l1.34375 1.453125zm-1.734375 -3.921875q-0.078125 -0.765625 -0.578125 -1.171875q-0.484375 -0.421875 -1.203125 -0.421875q-0.703125 0 -1.296875 0.4375q-0.59375 0.421875 -0.6875 1.15625l3.765625 0z" fill-rule="nonzero"></path><path fill="#000000" fill-opacity="0.0" d="m297.80316 380.7034l117.95276 -69.35431" fill-rule="nonzero"></path><path stroke="#000000" stroke-width="2.0" stroke-linejoin="round" stroke-linecap="butt" d="m297.80316 380.7034l107.60837 -63.272003" fill-rule="evenodd"></path><path fill="#000000" stroke="#000000" stroke-width="2.0" stroke-linecap="butt" d="m407.08594 320.27908l6.1495667 -7.448059l-9.498322 1.7526855z" fill-rule="evenodd"></path><path fill="#000000" fill-opacity="0.0" d="m418.3386 351.63254l-94.078735 55.527557" fill-rule="nonzero"></path><path stroke="#000000" stroke-width="2.0" stroke-linejoin="round" stroke-linecap="butt" d="m418.3386 351.63254l-83.74454 49.42807" fill-rule="evenodd"></path><path fill="#000000" stroke="#000000" stroke-width="2.0" stroke-linecap="butt" d="m332.91495 398.2157l-6.1371765 7.458252l9.495422 -1.7684631z" fill-rule="evenodd"></path><path fill="#000000" fill-opacity="0.0" d="m530.9248 294.30017l92.566956 0" fill-rule="nonzero"></path><path stroke="#000000" stroke-width="2.0" stroke-linejoin="round" stroke-linecap="butt" d="m530.9248 294.30017l80.566956 0" fill-rule="evenodd"></path><path fill="#000000" stroke="#000000" stroke-width="2.0" stroke-linecap="butt" d="m611.49176 297.60364l9.076172 -3.3034668l-9.076172 -3.3034668z" fill-rule="evenodd"></path><path fill="#000000" fill-opacity="0.0" d="m629.06433 325.29135l-96.252014 -0.78741455" fill-rule="nonzero"></path><path stroke="#000000" stroke-width="2.0" stroke-linejoin="round" stroke-linecap="butt" d="m629.06433 325.29135l-84.25238 -0.68927" fill-rule="evenodd"></path><path fill="#000000" stroke="#000000" stroke-width="2.0" stroke-linecap="butt" d="m544.8389 321.29874l-9.102905 3.229126l9.048889 3.377594z" fill-rule="evenodd"></path></g></svg>

